<svg width="38" height="38" viewBox="0 0 38 38" fill="none" xmlns="http://www.w3.org/2000/svg">
<path fill-rule="evenodd" clip-rule="evenodd" d="M0 3.20951C0 1.43695 1.43695 0 3.20951 0H24.7964C25.4611 0 26 0.538855 26 1.20357V5.79643C26 6.46115 26.5389 7 27.2036 7H30.7964C31.4611 7 32 7.53885 32 8.20357V19.7964C32 20.4611 32.5389 21 33.2036 21H36.7964C37.4611 21 38 21.5389 38 22.2036V36.7964C38 37.4611 37.4611 38 36.7964 38H26H24H3.20951C1.43695 38 0 36.5631 0 34.7905V3.20951Z" fill="#3F71F6"/>
<mask id="path-2-outside-1_5_62" maskUnits="userSpaceOnUse" x="11.0208" y="6.75" width="17" height="25" fill="black">
<rect fill="white" x="11.0208" y="6.75" width="17" height="25"/>
<path d="M12.4297 30.75V7.65065H15.9936V27.5161H27.1143V30.75H12.4297Z"/>
</mask>
<path d="M12.4297 30.75V7.65065H15.9936V27.5161H27.1143V30.75H12.4297Z" fill="#FFE3E2"/>
<path d="M12.4297 30.75H11.7697V31.41H12.4297V30.75ZM12.4297 7.65065V6.99067H11.7697V7.65065H12.4297ZM15.9936 7.65065H16.6536V6.99067H15.9936V7.65065ZM15.9936 27.5161H15.3336V28.1761H15.9936V27.5161ZM27.1143 27.5161H27.7743V26.8561H27.1143V27.5161ZM27.1143 30.75V31.41H27.7743V30.75H27.1143ZM13.0897 30.75V7.65065H11.7697V30.75H13.0897ZM12.4297 8.31063H15.9936V6.99067H12.4297V8.31063ZM15.3336 7.65065V27.5161H16.6536V7.65065H15.3336ZM15.9936 28.1761H27.1143V26.8561H15.9936V28.1761ZM26.4543 27.5161V30.75H27.7743V27.5161H26.4543ZM27.1143 30.09H12.4297V31.41H27.1143V30.09Z" fill="#EDE3FE" mask="url(#path-2-outside-1_5_62)"/>
</svg>
