<svg width="188" height="46" viewBox="0 0 188 46" fill="none" xmlns="http://www.w3.org/2000/svg">
<g clip-path="url(#clip0_116_6957)">
<path d="M165.678 6.7248L184.851 0.242011C185.914 -0.117523 186.961 0.798905 186.562 1.74037L179.582 18.2135C179.173 19.1795 177.649 19.2362 177.149 18.3039L173.754 11.9725C173.609 11.7006 173.349 11.4889 173.031 11.3816L165.679 8.9045C164.546 8.52269 164.545 7.10779 165.678 6.7248Z" fill="#E0FF78"/>
<path d="M165.861 7.16109L185.035 0.678312C185.673 0.462592 186.301 1.01245 186.061 1.57732L179.082 18.0505C178.836 18.6301 177.922 18.6641 177.622 18.1048L174.227 11.7733C174.023 11.3926 173.66 11.0962 173.214 10.946L165.862 8.46892C165.182 8.23983 165.182 7.39089 165.861 7.16109Z" stroke="white" stroke-opacity="0.3" stroke-width="1.05745" stroke-linecap="square"/>
</g>
<g filter="url(#filter0_i_116_6957)">
<g clip-path="url(#clip1_116_6957)">
<rect y="16" width="154" height="30" rx="15" fill="#E0FF78"/>
<path d="M33.6372 28.3439H31.683C31.6078 27.9263 31.4679 27.5589 31.2633 27.2415C31.0587 26.9242 30.8082 26.6549 30.5117 26.4336C30.2152 26.2122 29.8833 26.0452 29.5158 25.9325C29.1525 25.8197 28.7663 25.7634 28.3571 25.7634C27.618 25.7634 26.9561 25.9492 26.3715 26.3208C25.7911 26.6924 25.3318 27.2374 24.9936 27.9556C24.6595 28.6738 24.4925 29.5507 24.4925 30.5862C24.4925 31.6301 24.6595 32.5112 24.9936 33.2294C25.3318 33.9476 25.7932 34.4904 26.3778 34.8579C26.9624 35.2254 27.6201 35.4091 28.3508 35.4091C28.7558 35.4091 29.14 35.3548 29.5033 35.2462C29.8707 35.1335 30.2027 34.9686 30.4992 34.7514C30.7956 34.5343 31.0462 34.2691 31.2508 33.956C31.4596 33.6386 31.6036 33.2753 31.683 32.8661L33.6372 32.8724C33.5328 33.5029 33.3302 34.0833 33.0296 34.6136C32.7331 35.1398 32.3511 35.5949 31.8834 35.9791C31.4199 36.359 30.8896 36.6534 30.2925 36.8622C29.6954 37.071 29.044 37.1754 28.3383 37.1754C27.2276 37.1754 26.2379 36.9123 25.3694 36.3862C24.5009 35.8559 23.8161 35.098 23.315 34.1125C22.8181 33.1271 22.5696 31.9517 22.5696 30.5862C22.5696 29.2166 22.8202 28.0412 23.3212 27.0599C23.8223 26.0745 24.5071 25.3187 25.3757 24.7925C26.2442 24.2622 27.2317 23.9971 28.3383 23.9971C29.0189 23.9971 29.6536 24.0952 30.2424 24.2915C30.8353 24.4835 31.3677 24.7675 31.8395 25.1433C32.3114 25.5149 32.7018 25.9701 33.0108 26.5087C33.3198 27.0432 33.5286 27.6549 33.6372 28.3439ZM35.8027 37V27.3793H37.6129V28.9076H37.7131C37.8885 28.3898 38.1975 27.9827 38.6401 27.6862C39.0869 27.3856 39.5921 27.2353 40.1558 27.2353C40.2728 27.2353 40.4106 27.2395 40.5692 27.2478C40.7321 27.2562 40.8594 27.2666 40.9513 27.2791V29.0705C40.8761 29.0496 40.7425 29.0266 40.5504 29.0016C40.3584 28.9723 40.1663 28.9577 39.9742 28.9577C39.5316 28.9577 39.137 29.0517 38.7904 29.2396C38.448 29.4233 38.1766 29.6801 37.9762 30.01C37.7757 30.3357 37.6755 30.7073 37.6755 31.1249V37H35.8027ZM44.0486 40.6077C43.7688 40.6077 43.5141 40.5848 43.2844 40.5389C43.0548 40.4971 42.8836 40.4512 42.7708 40.4011L43.2218 38.8665C43.5642 38.9584 43.869 38.998 44.1363 38.9855C44.4035 38.973 44.6394 38.8728 44.844 38.6849C45.0528 38.497 45.2365 38.1901 45.3952 37.7641L45.627 37.1253L42.1069 27.3793H44.1112L46.5477 34.8454H46.6479L49.0844 27.3793H51.095L47.1302 38.284C46.9465 38.7851 46.7126 39.2089 46.4287 39.5555C46.1447 39.9062 45.8065 40.1693 45.414 40.3447C45.0215 40.5201 44.5664 40.6077 44.0486 40.6077ZM52.855 40.6077V27.3793H54.6839V28.9389H54.8405C54.9491 28.7385 55.1057 28.5068 55.3103 28.2437C55.5149 27.9806 55.7988 27.751 56.1621 27.5547C56.5254 27.3543 57.0056 27.2541 57.6027 27.2541C58.3794 27.2541 59.0725 27.4503 59.6822 27.8428C60.2918 28.2353 60.7699 28.8011 61.1165 29.5402C61.4672 30.2793 61.6426 31.1687 61.6426 32.2085C61.6426 33.2482 61.4693 34.1397 61.1227 34.883C60.7762 35.622 60.3001 36.192 59.6947 36.5929C59.0892 36.9896 58.3981 37.1879 57.6215 37.1879C57.0369 37.1879 56.5588 37.0898 56.1871 36.8935C55.8197 36.6973 55.5316 36.4676 55.3228 36.2045C55.114 35.9415 54.9532 35.7076 54.8405 35.503H54.7278V40.6077H52.855ZM54.6902 32.1897C54.6902 32.8661 54.7883 33.4591 54.9846 33.9685C55.1808 34.4779 55.4648 34.8767 55.8364 35.1648C56.208 35.4488 56.6632 35.5907 57.2018 35.5907C57.7614 35.5907 58.229 35.4425 58.6048 35.146C58.9806 34.8454 59.2646 34.4382 59.4567 33.9246C59.6529 33.411 59.7511 32.8327 59.7511 32.1897C59.7511 31.555 59.655 30.985 59.4629 30.4797C59.275 29.9745 58.9911 29.5757 58.6111 29.2834C58.2353 28.9911 57.7655 28.845 57.2018 28.845C56.659 28.845 56.1997 28.9849 55.8239 29.2646C55.4522 29.5444 55.1704 29.9348 54.9783 30.4359C54.7862 30.937 54.6902 31.5216 54.6902 32.1897ZM68.2318 27.3793V28.8826H62.9767V27.3793H68.2318ZM64.386 25.0744H66.2588V34.1752C66.2588 34.5385 66.3131 34.812 66.4216 34.9957C66.5302 35.1752 66.6701 35.2984 66.8413 35.3652C67.0167 35.4279 67.2066 35.4592 67.4113 35.4592C67.5616 35.4592 67.6931 35.4488 67.8058 35.4279C67.9186 35.407 68.0063 35.3903 68.0689 35.3778L68.4071 36.9248C68.2986 36.9666 68.1441 37.0084 67.9436 37.0501C67.7432 37.096 67.4927 37.1211 67.192 37.1253C66.6993 37.1336 66.24 37.0459 65.8141 36.8622C65.3882 36.6785 65.0437 36.3945 64.7806 36.0104C64.5175 35.6262 64.386 35.1439 64.386 34.5635V25.0744ZM74.2525 37.1942C73.3506 37.1942 72.5635 36.9875 71.8912 36.5741C71.2189 36.1607 70.697 35.5824 70.3253 34.8391C69.9537 34.0958 69.7679 33.2273 69.7679 32.2335C69.7679 31.2355 69.9537 30.3628 70.3253 29.6154C70.697 28.868 71.2189 28.2875 71.8912 27.8741C72.5635 27.4608 73.3506 27.2541 74.2525 27.2541C75.1544 27.2541 75.9416 27.4608 76.6138 27.8741C77.2861 28.2875 77.8081 28.868 78.1797 29.6154C78.5513 30.3628 78.7371 31.2355 78.7371 32.2335C78.7371 33.2273 78.5513 34.0958 78.1797 34.8391C77.8081 35.5824 77.2861 36.1607 76.6138 36.5741C75.9416 36.9875 75.1544 37.1942 74.2525 37.1942ZM74.2588 35.622C74.8434 35.622 75.3277 35.4675 75.7119 35.1585C76.0961 34.8495 76.38 34.4382 76.5637 33.9246C76.7516 33.411 76.8456 32.8452 76.8456 32.2272C76.8456 31.6134 76.7516 31.0497 76.5637 30.5361C76.38 30.0183 76.0961 29.6029 75.7119 29.2897C75.3277 28.9765 74.8434 28.8199 74.2588 28.8199C73.67 28.8199 73.1815 28.9765 72.7931 29.2897C72.409 29.6029 72.1229 30.0183 71.935 30.5361C71.7513 31.0497 71.6594 31.6134 71.6594 32.2272C71.6594 32.8452 71.7513 33.411 71.935 33.9246C72.1229 34.4382 72.409 34.8495 72.7931 35.1585C73.1815 35.4675 73.67 35.622 74.2588 35.622ZM85.6457 24.1724H87.9945L92.0783 34.1439H92.2286L96.3124 24.1724H98.6612V37H96.8197V27.7176H96.7007L92.9176 36.9812H91.3893L87.6062 27.7113H87.4872V37H85.6457V24.1724ZM101.325 37V27.3793H103.197V37H101.325ZM102.271 25.8949C101.945 25.8949 101.665 25.7863 101.431 25.5692C101.202 25.3479 101.087 25.0848 101.087 24.78C101.087 24.471 101.202 24.2079 101.431 23.9908C101.665 23.7695 101.945 23.6588 102.271 23.6588C102.596 23.6588 102.874 23.7695 103.104 23.9908C103.337 24.2079 103.454 24.471 103.454 24.78C103.454 25.0848 103.337 25.3479 103.104 25.5692C102.874 25.7863 102.596 25.8949 102.271 25.8949ZM107.59 31.2877V37H105.717V27.3793H107.515V28.9452H107.634C107.855 28.4358 108.201 28.0266 108.673 27.7176C109.149 27.4086 109.749 27.2541 110.471 27.2541C111.126 27.2541 111.701 27.3919 112.193 27.6675C112.686 27.9389 113.068 28.3439 113.34 28.8826C113.611 29.4212 113.747 30.0872 113.747 30.8806V37H111.874V31.1061C111.874 30.4088 111.692 29.8638 111.329 29.4713C110.966 29.0746 110.467 28.8763 109.832 28.8763C109.398 28.8763 109.012 28.9703 108.673 29.1582C108.339 29.3461 108.074 29.6217 107.878 29.9849C107.686 30.344 107.59 30.7783 107.59 31.2877ZM120.405 37.1942C119.457 37.1942 118.641 36.9916 117.956 36.5866C117.275 36.1774 116.749 35.6033 116.377 34.8642C116.01 34.1209 115.826 33.2503 115.826 32.2523C115.826 31.2669 116.01 30.3983 116.377 29.6467C116.749 28.8951 117.267 28.3084 117.931 27.8867C118.599 27.4649 119.38 27.2541 120.273 27.2541C120.816 27.2541 121.342 27.3438 121.852 27.5234C122.361 27.7029 122.818 27.9848 123.223 28.369C123.628 28.7531 123.948 29.2521 124.182 29.8659C124.415 30.4756 124.532 31.2167 124.532 32.0895V32.7534H116.885V31.3504H122.697C122.697 30.8576 122.597 30.4213 122.397 30.0413C122.196 29.6571 121.914 29.3544 121.551 29.1331C121.192 28.9118 120.77 28.8011 120.286 28.8011C119.76 28.8011 119.3 28.9306 118.908 29.1895C118.519 29.4442 118.219 29.7782 118.006 30.1916C117.797 30.6008 117.693 31.0455 117.693 31.5257V32.6218C117.693 33.2649 117.805 33.8119 118.031 34.2629C118.261 34.7138 118.58 35.0583 118.989 35.2963C119.398 35.5302 119.877 35.6471 120.424 35.6471C120.778 35.6471 121.102 35.597 121.394 35.4968C121.687 35.3924 121.939 35.2379 122.152 35.0333C122.365 34.8287 122.528 34.576 122.641 34.2754L124.413 34.5948C124.271 35.1168 124.017 35.574 123.649 35.9665C123.286 36.3549 122.829 36.6576 122.278 36.8747C121.731 37.0877 121.106 37.1942 120.405 37.1942ZM126.61 37V27.3793H128.42V28.9076H128.521C128.696 28.3898 129.005 27.9827 129.448 27.6862C129.894 27.3856 130.4 27.2353 130.963 27.2353C131.08 27.2353 131.218 27.2395 131.377 27.2478C131.54 27.2562 131.667 27.2666 131.759 27.2791V29.0705C131.684 29.0496 131.55 29.0266 131.358 29.0016C131.166 28.9723 130.974 28.9577 130.782 28.9577C130.339 28.9577 129.945 29.0517 129.598 29.2396C129.256 29.4233 128.984 29.6801 128.784 30.01C128.583 30.3357 128.483 30.7073 128.483 31.1249V37H126.61Z" fill="#1B1A1A"/>
</g>
</g>
<defs>
<filter id="filter0_i_116_6957" x="0" y="16" width="154" height="30" filterUnits="userSpaceOnUse" color-interpolation-filters="sRGB">
<feFlood flood-opacity="0" result="BackgroundImageFix"/>
<feBlend mode="normal" in="SourceGraphic" in2="BackgroundImageFix" result="shape"/>
<feColorMatrix in="SourceAlpha" type="matrix" values="0 0 0 0 0 0 0 0 0 0 0 0 0 0 0 0 0 0 127 0" result="hardAlpha"/>
<feMorphology radius="1.32181" operator="erode" in="SourceAlpha" result="effect1_innerShadow_116_6957"/>
<feOffset/>
<feComposite in2="hardAlpha" operator="arithmetic" k2="-1" k3="1"/>
<feColorMatrix type="matrix" values="0 0 0 0 0.810505 0 0 0 0 0.983333 0 0 0 0 0.262222 0 0 0 1 0"/>
<feBlend mode="normal" in2="shape" result="effect1_innerShadow_116_6957"/>
</filter>
<clipPath id="clip0_116_6957">
<rect width="19.8356" height="22.4707" fill="white" transform="matrix(0 1 -1 0 187.217 0.0664062)"/>
</clipPath>
<clipPath id="clip1_116_6957">
<rect y="16" width="154" height="30" rx="15" fill="white"/>
</clipPath>
</defs>
</svg>
