<svg width="135" height="46" viewBox="0 0 135 46" fill="none" xmlns="http://www.w3.org/2000/svg">
<g clip-path="url(#clip0_117_6958)">
<path d="M8.37592 19.1663L1.03192 2.24873C0.624625 1.31049 1.6628 0.387195 2.72933 0.739158L21.3909 6.89764C22.4852 7.25877 22.5494 8.6032 21.4933 9.04422L14.3208 12.0396C14.0127 12.1682 13.7729 12.397 13.6513 12.6779L10.8452 19.165C10.4127 20.165 8.80979 20.1658 8.37592 19.1663Z" fill="#3D91FF"/>
<path d="M8.86705 18.999L1.52306 2.08132C1.27868 1.51837 1.90158 0.964398 2.5415 1.17558L21.2031 7.33405C21.8596 7.55073 21.8982 8.3574 21.2645 8.62201L14.092 11.6174C13.6607 11.7975 13.3249 12.1177 13.1548 12.5109L10.3486 18.9982C10.0891 19.5981 9.12738 19.5986 8.86705 18.999Z" stroke="white" stroke-opacity="0.3" stroke-width="1.05745" stroke-linecap="square"/>
</g>
<g filter="url(#filter0_i_117_6958)">
<rect x="18" y="16" width="117" height="30" rx="15" fill="#3D91FF"/>
<path d="M47.2074 28.3439H45.2532C45.1781 27.9263 45.0382 27.5589 44.8336 27.2415C44.629 26.9242 44.3784 26.6549 44.082 26.4336C43.7855 26.2122 43.4535 26.0452 43.0861 25.9325C42.7228 25.8197 42.3366 25.7634 41.9273 25.7634C41.1883 25.7634 40.5264 25.9492 39.9418 26.3208C39.3614 26.6924 38.9021 27.2374 38.5639 27.9556C38.2298 28.6738 38.0628 29.5507 38.0628 30.5862C38.0628 31.6301 38.2298 32.5112 38.5639 33.2294C38.9021 33.9476 39.3635 34.4904 39.9481 34.8579C40.5327 35.2254 41.1903 35.4091 41.9211 35.4091C42.3261 35.4091 42.7103 35.3548 43.0736 35.2462C43.441 35.1335 43.773 34.9686 44.0694 34.7514C44.3659 34.5343 44.6164 34.2691 44.8211 33.956C45.0298 33.6386 45.1739 33.2753 45.2532 32.8661L47.2074 32.8724C47.103 33.5029 46.9005 34.0833 46.5999 34.6136C46.3034 35.1398 45.9213 35.5949 45.4537 35.9791C44.9902 36.359 44.4599 36.6534 43.8627 36.8622C43.2656 37.071 42.6142 37.1754 41.9085 37.1754C40.7978 37.1754 39.8082 36.9123 38.9397 36.3862C38.0711 35.8559 37.3863 35.098 36.8853 34.1125C36.3884 33.1271 36.1399 31.9517 36.1399 30.5862C36.1399 29.2166 36.3904 28.0412 36.8915 27.0599C37.3926 26.0745 38.0774 25.3187 38.9459 24.7925C39.8145 24.2622 40.802 23.9971 41.9085 23.9971C42.5892 23.9971 43.2239 24.0952 43.8126 24.2915C44.4056 24.4835 44.938 24.7675 45.4098 25.1433C45.8817 25.5149 46.2721 25.9701 46.5811 26.5087C46.8901 27.0432 47.0989 27.6549 47.2074 28.3439ZM55.4674 33.0102V27.3793H57.3464V37H55.5049V35.3339H55.4047C55.1834 35.8475 54.8285 36.2755 54.3399 36.6179C53.8556 36.9562 53.2522 37.1253 52.5298 37.1253C51.9118 37.1253 51.3648 36.9896 50.8888 36.7181C50.4169 36.4426 50.0453 36.0354 49.7739 35.4968C49.5066 34.9581 49.373 34.2921 49.373 33.4987V27.3793H51.2458V33.2732C51.2458 33.9288 51.4274 34.4508 51.7907 34.8391C52.154 35.2274 52.6258 35.4216 53.2063 35.4216C53.557 35.4216 53.9057 35.3339 54.2522 35.1585C54.603 34.9832 54.8932 34.718 55.1229 34.3631C55.3567 34.0082 55.4715 33.5572 55.4674 33.0102ZM67.072 29.7281L65.3746 30.0288C65.3036 29.8116 65.1908 29.605 65.0363 29.4087C64.886 29.2124 64.6814 29.0517 64.4225 28.9264C64.1636 28.8011 63.84 28.7385 63.4517 28.7385C62.9214 28.7385 62.4788 28.8575 62.1238 29.0955C61.7689 29.3294 61.5914 29.6321 61.5914 30.0037C61.5914 30.3252 61.7105 30.5841 61.9485 30.7804C62.1865 30.9766 62.5706 31.1374 63.1009 31.2627L64.6292 31.6134C65.5145 31.818 66.1742 32.1333 66.6085 32.5592C67.0427 32.9851 67.2599 33.5384 67.2599 34.219C67.2599 34.7953 67.0928 35.3089 66.7588 35.7598C66.4289 36.2066 65.9675 36.5574 65.3746 36.8121C64.7858 37.0668 64.1031 37.1942 63.3264 37.1942C62.2491 37.1942 61.3701 36.9645 60.6895 36.5052C60.0089 36.0417 59.5913 35.384 59.4368 34.5322L61.247 34.2566C61.3597 34.7285 61.5914 35.0855 61.9422 35.3277C62.293 35.5657 62.7502 35.6847 63.3139 35.6847C63.9277 35.6847 64.4184 35.5573 64.7858 35.3026C65.1533 35.0437 65.337 34.7285 65.337 34.3568C65.337 34.0562 65.2243 33.8036 64.9988 33.5989C64.7775 33.3943 64.4371 33.2398 63.9778 33.1354L62.3493 32.7784C61.4516 32.5738 60.7876 32.2481 60.3575 31.8013C59.9316 31.3545 59.7187 30.7887 59.7187 30.1039C59.7187 29.5361 59.8774 29.0392 60.1947 28.6132C60.512 28.1873 60.9505 27.8554 61.51 27.6173C62.0696 27.3752 62.7105 27.2541 63.4329 27.2541C64.4726 27.2541 65.2911 27.4796 65.8882 27.9305C66.4853 28.3773 66.8799 28.9765 67.072 29.7281ZM73.8099 27.3793V28.8826H68.5548V27.3793H73.8099ZM69.9641 25.0744H71.8369V34.1752C71.8369 34.5385 71.8912 34.812 71.9997 34.9957C72.1083 35.1752 72.2482 35.2984 72.4194 35.3652C72.5948 35.4279 72.7848 35.4592 72.9894 35.4592C73.1397 35.4592 73.2712 35.4488 73.384 35.4279C73.4967 35.407 73.5844 35.3903 73.647 35.3778L73.9853 36.9248C73.8767 36.9666 73.7222 37.0084 73.5218 37.0501C73.3213 37.096 73.0708 37.1211 72.7701 37.1253C72.2774 37.1336 71.8181 37.0459 71.3922 36.8622C70.9663 36.6785 70.6218 36.3945 70.3587 36.0104C70.0957 35.6262 69.9641 35.1439 69.9641 34.5635V25.0744ZM79.8306 37.1942C78.9287 37.1942 78.1416 36.9875 77.4693 36.5741C76.797 36.1607 76.2751 35.5824 75.9034 34.8391C75.5318 34.0958 75.346 33.2273 75.346 32.2335C75.346 31.2355 75.5318 30.3628 75.9034 29.6154C76.2751 28.868 76.797 28.2875 77.4693 27.8741C78.1416 27.4608 78.9287 27.2541 79.8306 27.2541C80.7326 27.2541 81.5197 27.4608 82.1919 27.8741C82.8642 28.2875 83.3862 28.868 83.7578 29.6154C84.1294 30.3628 84.3153 31.2355 84.3153 32.2335C84.3153 33.2273 84.1294 34.0958 83.7578 34.8391C83.3862 35.5824 82.8642 36.1607 82.1919 36.5741C81.5197 36.9875 80.7326 37.1942 79.8306 37.1942ZM79.8369 35.622C80.4215 35.622 80.9058 35.4675 81.29 35.1585C81.6742 34.8495 81.9581 34.4382 82.1418 33.9246C82.3297 33.411 82.4237 32.8452 82.4237 32.2272C82.4237 31.6134 82.3297 31.0497 82.1418 30.5361C81.9581 30.0183 81.6742 29.6029 81.29 29.2897C80.9058 28.9765 80.4215 28.8199 79.8369 28.8199C79.2481 28.8199 78.7596 28.9765 78.3712 29.2897C77.9871 29.6029 77.701 30.0183 77.5131 30.5361C77.3294 31.0497 77.2376 31.6134 77.2376 32.2272C77.2376 32.8452 77.3294 33.411 77.5131 33.9246C77.701 34.4382 77.9871 34.8495 78.3712 35.1585C78.7596 35.4675 79.2481 35.622 79.8369 35.622ZM86.4057 37V27.3793H88.2033V28.9452H88.3223C88.5227 28.4149 88.8505 28.0015 89.3057 27.705C89.7608 27.4044 90.3057 27.2541 90.9404 27.2541C91.5835 27.2541 92.1221 27.4044 92.5564 27.705C92.9948 28.0057 93.3184 28.4191 93.5272 28.9452H93.6274C93.8571 28.4316 94.2225 28.0224 94.7235 27.7176C95.2246 27.4086 95.8217 27.2541 96.5149 27.2541C97.3876 27.2541 98.0995 27.5276 98.6507 28.0746C99.2061 28.6216 99.4838 29.4463 99.4838 30.5486V37H97.611V30.724C97.611 30.0726 97.4335 29.6008 97.0786 29.3085C96.7237 29.0162 96.2998 28.87 95.8071 28.87C95.1975 28.87 94.7235 29.0579 94.3853 29.4337C94.0471 29.8054 93.878 30.2835 93.878 30.8681V37H92.0115V30.605C92.0115 30.0831 91.8486 29.6634 91.5229 29.3461C91.1972 29.0287 90.7734 28.87 90.2514 28.87C89.8965 28.87 89.5687 28.964 89.2681 29.1519C88.9716 29.3356 88.7315 29.5924 88.5478 29.9223C88.3682 30.2522 88.2785 30.6342 88.2785 31.0685V37H86.4057ZM106.14 37.1942C105.192 37.1942 104.376 36.9916 103.691 36.5866C103.011 36.1774 102.484 35.6033 102.113 34.8642C101.745 34.1209 101.562 33.2503 101.562 32.2523C101.562 31.2669 101.745 30.3983 102.113 29.6467C102.484 28.8951 103.002 28.3084 103.666 27.8867C104.334 27.4649 105.115 27.2541 106.009 27.2541C106.552 27.2541 107.078 27.3438 107.587 27.5234C108.097 27.7029 108.554 27.9848 108.959 28.369C109.364 28.7531 109.683 29.2521 109.917 29.8659C110.151 30.4756 110.268 31.2167 110.268 32.0895V32.7534H102.62V31.3504H108.433C108.433 30.8576 108.332 30.4213 108.132 30.0413C107.932 29.6571 107.65 29.3544 107.286 29.1331C106.927 28.9118 106.506 28.8011 106.021 28.8011C105.495 28.8011 105.036 28.9306 104.643 29.1895C104.255 29.4442 103.954 29.7782 103.741 30.1916C103.533 30.6008 103.428 31.0455 103.428 31.5257V32.6218C103.428 33.2649 103.541 33.8119 103.766 34.2629C103.996 34.7138 104.316 35.0583 104.725 35.2963C105.134 35.5302 105.612 35.6471 106.159 35.6471C106.514 35.6471 106.838 35.597 107.13 35.4968C107.422 35.3924 107.675 35.2379 107.888 35.0333C108.101 34.8287 108.264 34.576 108.376 34.2754L110.149 34.5948C110.007 35.1168 109.752 35.574 109.385 35.9665C109.021 36.3549 108.564 36.6576 108.013 36.8747C107.466 37.0877 106.842 37.1942 106.14 37.1942ZM112.346 37V27.3793H114.156V28.9076H114.256C114.431 28.3898 114.74 27.9827 115.183 27.6862C115.63 27.3856 116.135 27.2353 116.699 27.2353C116.816 27.2353 116.954 27.2395 117.112 27.2478C117.275 27.2562 117.402 27.2666 117.494 27.2791V29.0705C117.419 29.0496 117.286 29.0266 117.093 29.0016C116.901 28.9723 116.709 28.9577 116.517 28.9577C116.075 28.9577 115.68 29.0517 115.333 29.2396C114.991 29.4233 114.72 29.6801 114.519 30.01C114.319 30.3357 114.219 30.7073 114.219 31.1249V37H112.346Z" fill="white"/>
</g>
<defs>
<filter id="filter0_i_117_6958" x="18" y="16" width="117" height="30" filterUnits="userSpaceOnUse" color-interpolation-filters="sRGB">
<feFlood flood-opacity="0" result="BackgroundImageFix"/>
<feBlend mode="normal" in="SourceGraphic" in2="BackgroundImageFix" result="shape"/>
<feColorMatrix in="SourceAlpha" type="matrix" values="0 0 0 0 0 0 0 0 0 0 0 0 0 0 0 0 0 0 127 0" result="hardAlpha"/>
<feMorphology radius="1.32181" operator="erode" in="SourceAlpha" result="effect1_innerShadow_117_6958"/>
<feOffset/>
<feComposite in2="hardAlpha" operator="arithmetic" k2="-1" k3="1"/>
<feColorMatrix type="matrix" values="0 0 0 0 0.178559 0 0 0 0 0.439394 0 0 0 0 0.779167 0 0 0 1 0"/>
<feBlend mode="normal" in2="shape" result="effect1_innerShadow_117_6958"/>
</filter>
<clipPath id="clip0_117_6958">
<rect width="22.4707" height="19.8271" fill="white" transform="translate(0.828125 0.15918)"/>
</clipPath>
</defs>
</svg>
