<svg width="107" height="47" viewBox="0 0 107 47" fill="none" xmlns="http://www.w3.org/2000/svg">
<g clip-path="url(#clip0_117_6959)">
<path d="M7.68446 19.8047L0.340455 2.88715C-0.066842 1.94891 0.97133 1.02562 2.03786 1.37759L20.6994 7.53607C21.7937 7.8972 21.858 9.24163 20.8018 9.68264L13.6293 12.678C13.3212 12.8067 13.0814 13.0354 12.9599 13.3164L10.1537 19.8034C9.72119 20.8034 8.11833 20.8042 7.68446 19.8047Z" fill="#FF6A79"/>
<path d="M8.17559 19.6372L0.831592 2.7195C0.587215 2.15655 1.21012 1.60258 1.85003 1.81376L20.5116 7.97223C21.1682 8.18891 21.2068 8.99558 20.5731 9.26019L13.4005 12.2556C12.9692 12.4357 12.6335 12.7559 12.4633 13.1491L9.65716 19.6363C9.39764 20.2363 8.43592 20.2367 8.17559 19.6372Z" stroke="white" stroke-opacity="0.3" stroke-width="1.05745" stroke-linecap="square"/>
</g>
<g filter="url(#filter0_i_117_6959)">
<rect x="17" y="17" width="90" height="30" rx="15" fill="#FF6A79"/>
<path d="M35.4127 39V25.9622H40.1873C41.1125 25.9622 41.8785 26.1149 42.4854 26.4205C43.0924 26.7219 43.5465 27.1314 43.8478 27.6492C44.1491 28.1627 44.2998 28.742 44.2998 29.3871C44.2998 29.9304 44.2001 30.3887 44.0006 30.7622C43.8011 31.1315 43.5337 31.4285 43.1985 31.6535C42.8674 31.8742 42.5024 32.0355 42.1035 32.1373V32.2646C42.5364 32.2859 42.9587 32.4259 43.3703 32.6848C43.7863 32.9394 44.13 33.3023 44.4017 33.7734C44.6733 34.2445 44.8091 34.8175 44.8091 35.4923C44.8091 36.1586 44.6521 36.757 44.338 37.2875C44.0282 37.8138 43.5486 38.2318 42.8992 38.5416C42.2499 38.8472 41.4202 39 40.4101 39H35.4127ZM37.3798 37.313H40.2191C41.1613 37.313 41.8361 37.1305 42.2435 36.7655C42.651 36.4005 42.8547 35.9443 42.8547 35.3968C42.8547 34.9851 42.7507 34.6074 42.5427 34.2636C42.3348 33.9198 42.0377 33.6461 41.6515 33.4424C41.2695 33.2387 40.8154 33.1368 40.2891 33.1368H37.3798V37.313ZM37.3798 31.6026H40.0154C40.4568 31.6026 40.8536 31.5177 41.2059 31.3479C41.5624 31.1781 41.8446 30.9405 42.0526 30.6349C42.2648 30.3251 42.3709 29.9601 42.3709 29.5399C42.3709 29.0009 42.182 28.5489 41.8043 28.1839C41.4265 27.819 40.8472 27.6365 40.0663 27.6365H37.3798V31.6026ZM46.9895 39V29.2216H48.8293V30.775H48.9312C49.1094 30.2487 49.4235 29.8349 49.8733 29.5336C50.3275 29.228 50.841 29.0752 51.4139 29.0752C51.5328 29.0752 51.6728 29.0794 51.8341 29.0879C51.9996 29.0964 52.1291 29.107 52.2224 29.1198V30.9405C52.1461 30.9193 52.0102 30.8959 51.815 30.8704C51.6198 30.8407 51.4246 30.8259 51.2293 30.8259C50.7795 30.8259 50.3784 30.9214 50.0261 31.1124C49.6781 31.2991 49.4023 31.5601 49.1985 31.8954C48.9948 32.2264 48.893 32.6042 48.893 33.0286V39H46.9895ZM57.6384 39.1974C56.7217 39.1974 55.9217 38.9873 55.2384 38.5671C54.5551 38.1469 54.0246 37.5591 53.6469 36.8037C53.2691 36.0482 53.0803 35.1655 53.0803 34.1554C53.0803 33.141 53.2691 32.254 53.6469 31.4943C54.0246 30.7346 54.5551 30.1447 55.2384 29.7245C55.9217 29.3044 56.7217 29.0943 57.6384 29.0943C58.5552 29.0943 59.3552 29.3044 60.0385 29.7245C60.7218 30.1447 61.2523 30.7346 61.63 31.4943C62.0077 32.254 62.1966 33.141 62.1966 34.1554C62.1966 35.1655 62.0077 36.0482 61.63 36.8037C61.2523 37.5591 60.7218 38.1469 60.0385 38.5671C59.3552 38.9873 58.5552 39.1974 57.6384 39.1974ZM57.6448 37.5995C58.239 37.5995 58.7313 37.4424 59.1217 37.1284C59.5122 36.8143 59.8008 36.3963 59.9875 35.8742C60.1785 35.3522 60.274 34.7771 60.274 34.149C60.274 33.5251 60.1785 32.9522 59.9875 32.4302C59.8008 31.9039 59.5122 31.4816 59.1217 31.1633C58.7313 30.845 58.239 30.6858 57.6448 30.6858C57.0464 30.6858 56.5498 30.845 56.1551 31.1633C55.7647 31.4816 55.4739 31.9039 55.283 32.4302C55.0962 32.9522 55.0029 33.5251 55.0029 34.149C55.0029 34.7771 55.0962 35.3522 55.283 35.8742C55.4739 36.3963 55.7647 36.8143 56.1551 37.1284C56.5498 37.4424 57.0464 37.5995 57.6448 37.5995ZM66.072 35.6832L66.0592 33.3596H66.3903L70.2863 29.2216H72.5654L68.1219 33.9326H67.8227L66.072 35.6832ZM64.3213 39V25.9622H66.2248V39H64.3213ZM70.4964 39L66.9951 34.3527L68.3065 33.0222L72.8328 39H70.4964ZM78.1119 39.1974C77.1485 39.1974 76.3188 38.9915 75.6228 38.5798C74.931 38.1639 74.3962 37.5804 74.0185 36.8291C73.645 36.0737 73.4583 35.1888 73.4583 34.1745C73.4583 33.1729 73.645 32.2901 74.0185 31.5262C74.3962 30.7622 74.9225 30.1659 75.5973 29.7373C76.2763 29.3086 77.07 29.0943 77.9782 29.0943C78.53 29.0943 79.0647 29.1855 79.5825 29.368C80.1003 29.5505 80.565 29.837 80.9767 30.2275C81.3884 30.6179 81.713 31.1251 81.9507 31.749C82.1884 32.3686 82.3072 33.1219 82.3072 34.009V34.6838H74.5341V33.2577H80.4419C80.4419 32.7569 80.3401 32.3134 80.1363 31.9272C79.9326 31.5368 79.6462 31.2291 79.2769 31.0041C78.9119 30.7792 78.4833 30.6667 77.991 30.6667C77.4562 30.6667 76.9894 30.7983 76.5904 31.0614C76.1957 31.3203 75.8901 31.6599 75.6737 32.08C75.4615 32.4959 75.3554 32.9479 75.3554 33.436V34.5501C75.3554 35.2037 75.47 35.7596 75.6992 36.218C75.9326 36.6764 76.2572 37.0265 76.6732 37.2684C77.0891 37.5061 77.575 37.6249 78.131 37.6249C78.4918 37.6249 78.8207 37.574 79.1178 37.4721C79.4148 37.366 79.6716 37.209 79.8881 37.001C80.1045 36.7931 80.27 36.5363 80.3846 36.2307L82.1862 36.5554C82.0419 37.0859 81.7831 37.5506 81.4096 37.9496C81.0403 38.3443 80.5756 38.652 80.0154 38.8727C79.4594 39.0891 78.8249 39.1974 78.1119 39.1974ZM84.4192 39V29.2216H86.259V30.775H86.3608C86.5391 30.2487 86.8531 29.8349 87.303 29.5336C87.7571 29.228 88.2707 29.0752 88.8436 29.0752C88.9625 29.0752 89.1025 29.0794 89.2638 29.0879C89.4293 29.0964 89.5588 29.107 89.6521 29.1198V30.9405C89.5757 30.9193 89.4399 30.8959 89.2447 30.8704C89.0495 30.8407 88.8542 30.8259 88.659 30.8259C88.2091 30.8259 87.8081 30.9214 87.4558 31.1124C87.1078 31.2991 86.8319 31.5601 86.6282 31.8954C86.4245 32.2264 86.3226 32.6042 86.3226 33.0286V39H84.4192Z" fill="#0F1115"/>
</g>
<defs>
<filter id="filter0_i_117_6959" x="17" y="17" width="90" height="30" filterUnits="userSpaceOnUse" color-interpolation-filters="sRGB">
<feFlood flood-opacity="0" result="BackgroundImageFix"/>
<feBlend mode="normal" in="SourceGraphic" in2="BackgroundImageFix" result="shape"/>
<feColorMatrix in="SourceAlpha" type="matrix" values="0 0 0 0 0 0 0 0 0 0 0 0 0 0 0 0 0 0 127 0" result="hardAlpha"/>
<feMorphology radius="1.32181" operator="erode" in="SourceAlpha" result="effect1_innerShadow_117_6959"/>
<feOffset/>
<feComposite in2="hardAlpha" operator="arithmetic" k2="-1" k3="1"/>
<feColorMatrix type="matrix" values="0 0 0 0 0.825 0 0 0 0 0.3575 0 0 0 0 0.406343 0 0 0 1 0"/>
<feBlend mode="normal" in2="shape" result="effect1_innerShadow_117_6959"/>
</filter>
<clipPath id="clip0_117_6959">
<rect width="22.4707" height="19.8271" fill="white" transform="translate(0.136658 0.797607)"/>
</clipPath>
</defs>
</svg>
