<svg width="91" height="36" viewBox="0 0 91 36" fill="none" xmlns="http://www.w3.org/2000/svg">
<g clip-path="url(#clip0_1_167)">
<path d="M12.6409 29.2769L3.47052 16.4812H0.0355225V35.5254H3.70417V22.7201L12.8746 35.5254H16.3096V16.4812H12.6409V29.2769Z" fill="white"/>
<path d="M37.5657 16.4812H33.1166L28.2869 24.3509L23.3199 16.4812H18.6371L26.0515 27.8003V35.5254H30.0333V27.8509L37.5657 16.4812Z" fill="white"/>
<path d="M47.9944 24.3773L45.7662 23.8691C43.1527 23.2837 42.5986 22.814 42.5986 21.6794C42.5986 20.5834 43.7308 19.5669 45.8819 19.5669C47.7872 19.5387 49.6373 20.2068 51.0849 21.4458L53.3926 18.3938C51.2415 16.6353 48.5027 16.009 46.0384 16.009C41.5797 16.009 38.4506 18.6298 38.4506 22.1106C38.4506 24.847 40.291 26.6079 44.0439 27.3498L46.236 27.781C48.7773 28.2893 49.7143 29.2263 49.7143 30.3223C49.7143 31.8471 48.4256 32.5529 46.2745 32.5914C44.2005 32.63 42.206 31.8881 40.4066 30.0501L38.0219 32.9407C39.8598 35.0533 43.1069 35.9927 46.1565 35.9927C50.8103 35.9927 53.7058 33.7236 53.7058 30.0477C53.7058 26.8825 51.7112 25.2397 47.9944 24.3773Z" fill="white"/>
<path d="M60.1503 27.6822C60.767 30.5487 62.9711 32.4421 65.8713 32.4421C67.9791 32.4421 69.658 31.4665 70.8672 29.7923L73.6374 32.1361C72.7477 33.3551 71.5774 34.3418 70.2256 35.0126C68.8737 35.6835 67.3802 36.0189 65.8713 35.9903C59.8227 35.9903 55.9204 31.6544 55.9204 25.9984C55.9204 20.3425 59.7914 16.0066 65.3342 16.0066C69.4846 16.0066 75.1622 18.8972 74.2228 27.6774L60.1503 27.6822ZM70.4577 24.5989C70.0338 20.699 67.5117 19.5235 65.7967 19.5235C62.8796 19.5235 60.767 21.3566 60.0901 24.5989H70.4577Z" fill="white"/>
<path d="M72.2113 5.74507H85.2166V18.7504H90.9641V0H72.2113V5.74507Z" fill="white"/>
</g>
<defs>
<clipPath id="clip0_1_167">
<rect width="90.9334" height="36" fill="white" transform="translate(0.0355225)"/>
</clipPath>
</defs>
</svg>
