<svg width="111" height="36" viewBox="0 0 111 36" fill="none" xmlns="http://www.w3.org/2000/svg">
<path d="M33.5743 2.37207H3.70838C3.52419 2.37207 3.34754 2.44519 3.21736 2.57551C3.08703 2.7057 3.01392 2.88235 3.01392 3.06667V32.9326C3.01392 33.1168 3.08703 33.2934 3.21736 33.4236C3.34754 33.5539 3.52419 33.6271 3.70838 33.6271H33.5743C33.7586 33.6271 33.9353 33.5539 34.0654 33.4236C34.1958 33.2934 34.2689 33.1168 34.2689 32.9326V3.06667C34.2689 2.88235 34.1958 2.7057 34.0654 2.57551C33.9353 2.44519 33.7586 2.37207 33.5743 2.37207ZM23.8505 22.5142C23.8505 22.6984 23.7774 22.875 23.6471 23.0054C23.5169 23.1356 23.3402 23.2088 23.1561 23.2088H14.1268C13.9426 23.2088 13.7659 23.1356 13.6356 23.0054C13.5054 22.875 13.4323 22.6984 13.4323 22.5142V13.4849C13.4323 13.3007 13.5054 13.1241 13.6356 12.9939C13.7659 12.8636 13.9426 12.7904 14.1268 12.7904H23.1561C23.3402 12.7904 23.5169 12.8636 23.6471 12.9939C23.7774 13.1241 23.8505 13.3007 23.8505 13.4849V22.5142Z" fill="white"/>
<path d="M96.1029 12.7915H87.0738C86.6902 12.7915 86.3792 13.1024 86.3792 13.486V22.5153C86.3792 22.8988 86.6902 23.2099 87.0738 23.2099H96.1029C96.4865 23.2099 96.7975 22.8988 96.7975 22.5153V13.486C96.7975 13.1024 96.4865 12.7915 96.1029 12.7915Z" fill="white"/>
<path d="M85.6791 2.37305H76.6499C76.2663 2.37305 75.9553 2.68393 75.9553 3.06765V12.0968C75.9553 12.4804 76.2663 12.7914 76.6499 12.7914H85.6791C86.0628 12.7914 86.3737 12.4804 86.3737 12.0968V3.06765C86.3737 2.68393 86.0628 2.37305 85.6791 2.37305Z" fill="white"/>
<path d="M106.517 2.37305H97.4878C97.1042 2.37305 96.7932 2.68393 96.7932 3.06765V12.0968C96.7932 12.4804 97.1042 12.7914 97.4878 12.7914H106.517C106.901 12.7914 107.212 12.4804 107.212 12.0968V3.06765C107.212 2.68393 106.901 2.37305 106.517 2.37305Z" fill="white"/>
<path d="M85.6791 23.2095H76.6499C76.2663 23.2095 75.9553 23.5204 75.9553 23.9039V32.9332C75.9553 33.3168 76.2663 33.6279 76.6499 33.6279H85.6791C86.0628 33.6279 86.3737 33.3168 86.3737 32.9332V23.9039C86.3737 23.5204 86.0628 23.2095 85.6791 23.2095Z" fill="white"/>
<path d="M106.517 23.2095H97.4878C97.1042 23.2095 96.7932 23.5204 96.7932 23.9039V32.9332C96.7932 33.3168 97.1042 33.6279 97.4878 33.6279H106.517C106.901 33.6279 107.212 33.3168 107.212 32.9332V23.9039C107.212 23.5204 106.901 23.2095 106.517 23.2095Z" fill="white"/>
<path d="M70.0385 2.37305H61.0093C60.6257 2.37305 60.3147 2.68393 60.3147 3.06765V12.0968C60.3147 12.4804 60.6257 12.7914 61.0093 12.7914H70.0385C70.422 12.7914 70.7331 12.4804 70.7331 12.0968V3.06765C70.7331 2.68393 70.422 2.37305 70.0385 2.37305Z" fill="white"/>
<path d="M70.0385 23.2095H61.0093C60.6257 23.2095 60.3147 23.5204 60.3147 23.9039V32.9332C60.3147 33.3168 60.6257 33.6279 61.0093 33.6279H70.0385C70.422 33.6279 70.7331 33.3168 70.7331 32.9332V23.9039C70.7331 23.5204 70.422 23.2095 70.0385 23.2095Z" fill="white"/>
<path d="M60.3153 13.4771C60.3153 13.2929 60.2421 13.1163 60.1119 12.9861C59.9816 12.8557 59.8049 12.7826 59.6207 12.7826H49.8969V3.06667C49.8969 2.88235 49.8237 2.7057 49.6935 2.57551C49.5632 2.44519 49.3865 2.37207 49.2023 2.37207H40.1732C39.9889 2.37207 39.8122 2.44519 39.682 2.57551C39.5517 2.7057 39.4786 2.88235 39.4786 3.06667V32.917C39.4786 33.1011 39.5517 33.2778 39.682 33.408C39.8122 33.5383 39.9889 33.6114 40.1732 33.6114H49.2023C49.3865 33.6114 49.5632 33.5383 49.6935 33.408C49.8237 33.2778 49.8969 33.1011 49.8969 32.917V23.201H59.6207C59.8049 23.201 59.9816 23.1277 60.1119 22.9976C60.2421 22.8672 60.3153 22.6906 60.3153 22.5064V13.4771Z" fill="white"/>
</svg>
