<svg width="191" height="37" viewBox="0 0 191 37" fill="none"
    xmlns="http://www.w3.org/2000/svg">
    <defs>
        <clipPath id="revealClip">
            <rect x="0" y="0" width="0" height="37">
                <animate attributeName="width" from="0" to="191" dur="2s" fill="freeze" />
            </rect>
        </clipPath>
    </defs>
    <path d="M21.732 23.0186V18.5158H34.0611V25.3415C34.0611 30.3446 28.7721 33.7396 22.3753 33.7396C14.5847 33.7396 8.97412 28.9866 8.97412 20.3026C8.97412 11.6187 14.5847 6.86572 22.3753 6.86572C28.5577 6.86572 32.4173 9.72464 33.9897 13.5842L27.9859 15.1566C27.3069 13.9773 25.806 12.0833 22.3753 12.0833C18.3371 12.0833 15.5496 15.1923 15.5496 20.3026C15.5496 25.413 18.3371 28.522 22.3753 28.522C25.27 28.522 27.4856 27.0211 27.4856 25.413V23.0186H21.732Z" fill="white"/>
    <path d="M0 33.1678V7.4375H6.57552V33.1678H0Z" fill="white"/>
    <path d="M43.2484 1.18042C41.4758 1.18042 40.0389 2.61736 40.0389 4.38992V33.6099C40.0389 35.3825 41.4758 36.8194 43.2484 36.8194H158.384C158.391 36.8194 158.396 36.8244 158.396 36.8305C158.396 36.8367 158.401 36.8417 158.407 36.8417L174.443 36.8417H189.287C189.952 36.8417 190.491 36.3028 190.491 35.6381V21.9977C190.491 21.333 189.952 20.7941 189.287 20.7941H175.879C175.214 20.7941 174.675 20.2553 174.675 19.5906V9.42379C174.675 8.75908 174.136 8.22022 173.472 8.22022H165.319C164.654 8.22022 164.115 7.68137 164.115 7.01665V2.38399C164.115 1.71927 163.577 1.18042 162.912 1.18042H43.2484Z" fill="#3F71F6" clip-path="url(#revealClip)" />
    <mask id="path-4-outside-1_1_137" maskUnits="userSpaceOnUse" x="48.0597" y="6.49048" width="115" height="26" fill="black">
        <rect fill="white" x="48.0597" y="6.49048" width="115" height="26"/>
        <path d="M49.4686 30.4905V7.39113H53.0325V27.2566H64.1532V30.4905H49.4686ZM72.5662 30.9525C71.4002 30.9525 70.3552 30.7545 69.4313 30.3585C68.5293 29.9625 67.8033 29.3795 67.2533 28.6095C66.7253 27.8396 66.4613 26.9046 66.4613 25.8046C66.4613 24.6826 66.7253 23.7587 67.2533 23.0327C67.8033 22.2847 68.5403 21.7237 69.4643 21.3497C70.4102 20.9757 71.4772 20.7888 72.6652 20.7888H77.615V19.7328C77.615 18.7868 77.329 18.0278 76.7571 17.4558C76.1851 16.8839 75.3051 16.5979 74.1171 16.5979C72.9512 16.5979 72.0602 16.8729 71.4442 17.4228C70.8282 17.9728 70.4212 18.6878 70.2232 19.5678L67.0553 18.5448C67.3193 17.6648 67.7373 16.8729 68.3093 16.1689C68.9033 15.4429 69.6843 14.8599 70.6522 14.4199C71.6202 13.9799 72.7862 13.7599 74.1501 13.7599C76.2621 13.7599 77.923 14.2989 79.133 15.3769C80.343 16.4549 80.9479 17.9838 80.9479 19.9638V26.6626C80.9479 27.3226 81.2559 27.6526 81.8719 27.6526H83.2579V30.4905H80.7169C79.947 30.4905 79.32 30.2925 78.836 29.8965C78.352 29.5005 78.11 28.9615 78.11 28.2795V28.1805H77.615C77.439 28.5105 77.175 28.8955 76.8231 29.3355C76.4711 29.7755 75.9541 30.1605 75.2721 30.4905C74.5901 30.7985 73.6881 30.9525 72.5662 30.9525ZM73.0612 28.1475C74.4251 28.1475 75.5251 27.7626 76.3611 26.9926C77.197 26.2006 77.615 25.1226 77.615 23.7587V23.4287H72.8632C71.9612 23.4287 71.2352 23.6267 70.6852 24.0227C70.1352 24.3966 69.8602 24.9576 69.8602 25.7056C69.8602 26.4536 70.1462 27.0476 70.7182 27.4876C71.2902 27.9276 72.0712 28.1475 73.0612 28.1475ZM92.3806 30.7875C91.1486 30.7875 90.0486 30.5125 89.0807 29.9625C88.1127 29.4125 87.3537 28.6315 86.8037 27.6196C86.2537 26.6076 85.9787 25.3976 85.9787 23.9897V14.2219H89.3777V23.7587C89.3777 25.1666 89.7296 26.2116 90.4336 26.8936C91.1376 27.5536 92.1166 27.8836 93.3705 27.8836C94.7565 27.8836 95.8675 27.4216 96.7034 26.4976C97.5614 25.5516 97.9904 24.1987 97.9904 22.4387V14.2219H101.389V30.4905H98.0564V28.0485H97.5284C97.2204 28.7085 96.6704 29.3355 95.8785 29.9295C95.0865 30.5015 93.9205 30.7875 92.3806 30.7875ZM106.414 30.4905V14.2219H109.747V16.6639H110.275C110.583 16.0039 111.133 15.3879 111.925 14.8159C112.717 14.2439 113.893 13.9579 115.455 13.9579C116.687 13.9579 117.776 14.2329 118.722 14.7829C119.69 15.3329 120.449 16.1139 120.999 17.1259C121.549 18.1158 121.824 19.3148 121.824 20.7228V30.4905H118.425V20.9867C118.425 19.5788 118.073 18.5448 117.369 17.8848C116.665 17.2029 115.697 16.8619 114.465 16.8619C113.057 16.8619 111.925 17.3238 111.067 18.2478C110.231 19.1718 109.813 20.5138 109.813 22.2737V30.4905H106.414ZM134.273 30.9525C132.711 30.9525 131.292 30.6225 130.016 29.9625C128.762 29.3025 127.761 28.3455 127.013 27.0916C126.287 25.8376 125.924 24.3307 125.924 22.5707V22.1417C125.924 20.3818 126.287 18.8858 127.013 17.6538C127.761 16.3999 128.762 15.4429 130.016 14.7829C131.292 14.1009 132.711 13.7599 134.273 13.7599C135.835 13.7599 137.166 14.0459 138.266 14.6179C139.365 15.1899 140.245 15.9489 140.905 16.8949C141.587 17.8408 142.027 18.8858 142.225 20.0298L138.926 20.7228C138.816 19.9968 138.585 19.3368 138.233 18.7428C137.881 18.1488 137.386 17.6758 136.748 17.3238C136.11 16.9719 135.307 16.7959 134.339 16.7959C133.393 16.7959 132.535 17.0159 131.765 17.4558C131.017 17.8738 130.423 18.4898 129.983 19.3038C129.543 20.0958 129.323 21.0637 129.323 22.2077V22.5047C129.323 23.6487 129.543 24.6276 129.983 25.4416C130.423 26.2556 131.017 26.8716 131.765 27.2896C132.535 27.7076 133.393 27.9166 134.339 27.9166C135.769 27.9166 136.858 27.5536 137.606 26.8276C138.354 26.0796 138.827 25.1336 139.025 23.9897L142.324 24.7486C142.06 25.8706 141.587 26.9046 140.905 27.8506C140.245 28.7965 139.365 29.5555 138.266 30.1275C137.166 30.6775 135.835 30.9525 134.273 30.9525ZM146.245 30.4905V7.39113H149.643V16.5319H150.171C150.391 16.1139 150.699 15.7069 151.095 15.3109C151.513 14.9149 152.052 14.5959 152.712 14.3539C153.394 14.0899 154.252 13.9579 155.286 13.9579C156.518 13.9579 157.607 14.2329 158.553 14.7829C159.521 15.3329 160.28 16.1139 160.83 17.1259C161.38 18.1158 161.655 19.3148 161.655 20.7228V30.4905H158.256V20.9867C158.256 19.5788 157.904 18.5448 157.2 17.8848C156.496 17.2029 155.528 16.8619 154.296 16.8619C152.888 16.8619 151.755 17.3238 150.897 18.2478C150.061 19.1718 149.643 20.5138 149.643 22.2737V30.4905H146.245Z"/>
    </mask>
    <path d="M49.4686 30.4905V7.39113H53.0325V27.2566H64.1532V30.4905H49.4686ZM72.5662 30.9525C71.4002 30.9525 70.3552 30.7545 69.4313 30.3585C68.5293 29.9625 67.8033 29.3795 67.2533 28.6095C66.7253 27.8396 66.4613 26.9046 66.4613 25.8046C66.4613 24.6826 66.7253 23.7587 67.2533 23.0327C67.8033 22.2847 68.5403 21.7237 69.4643 21.3497C70.4102 20.9757 71.4772 20.7888 72.6652 20.7888H77.615V19.7328C77.615 18.7868 77.329 18.0278 76.7571 17.4558C76.1851 16.8839 75.3051 16.5979 74.1171 16.5979C72.9512 16.5979 72.0602 16.8729 71.4442 17.4228C70.8282 17.9728 70.4212 18.6878 70.2232 19.5678L67.0553 18.5448C67.3193 17.6648 67.7373 16.8729 68.3093 16.1689C68.9033 15.4429 69.6843 14.8599 70.6522 14.4199C71.6202 13.9799 72.7862 13.7599 74.1501 13.7599C76.2621 13.7599 77.923 14.2989 79.133 15.3769C80.343 16.4549 80.9479 17.9838 80.9479 19.9638V26.6626C80.9479 27.3226 81.2559 27.6526 81.8719 27.6526H83.2579V30.4905H80.7169C79.947 30.4905 79.32 30.2925 78.836 29.8965C78.352 29.5005 78.11 28.9615 78.11 28.2795V28.1805H77.615C77.439 28.5105 77.175 28.8955 76.8231 29.3355C76.4711 29.7755 75.9541 30.1605 75.2721 30.4905C74.5901 30.7985 73.6881 30.9525 72.5662 30.9525ZM73.0612 28.1475C74.4251 28.1475 75.5251 27.7626 76.3611 26.9926C77.197 26.2006 77.615 25.1226 77.615 23.7587V23.4287H72.8632C71.9612 23.4287 71.2352 23.6267 70.6852 24.0227C70.1352 24.3966 69.8602 24.9576 69.8602 25.7056C69.8602 26.4536 70.1462 27.0476 70.7182 27.4876C71.2902 27.9276 72.0712 28.1475 73.0612 28.1475ZM92.3806 30.7875C91.1486 30.7875 90.0486 30.5125 89.0807 29.9625C88.1127 29.4125 87.3537 28.6315 86.8037 27.6196C86.2537 26.6076 85.9787 25.3976 85.9787 23.9897V14.2219H89.3777V23.7587C89.3777 25.1666 89.7296 26.2116 90.4336 26.8936C91.1376 27.5536 92.1166 27.8836 93.3705 27.8836C94.7565 27.8836 95.8675 27.4216 96.7034 26.4976C97.5614 25.5516 97.9904 24.1987 97.9904 22.4387V14.2219H101.389V30.4905H98.0564V28.0485H97.5284C97.2204 28.7085 96.6704 29.3355 95.8785 29.9295C95.0865 30.5015 93.9205 30.7875 92.3806 30.7875ZM106.414 30.4905V14.2219H109.747V16.6639H110.275C110.583 16.0039 111.133 15.3879 111.925 14.8159C112.717 14.2439 113.893 13.9579 115.455 13.9579C116.687 13.9579 117.776 14.2329 118.722 14.7829C119.69 15.3329 120.449 16.1139 120.999 17.1259C121.549 18.1158 121.824 19.3148 121.824 20.7228V30.4905H118.425V20.9867C118.425 19.5788 118.073 18.5448 117.369 17.8848C116.665 17.2029 115.697 16.8619 114.465 16.8619C113.057 16.8619 111.925 17.3238 111.067 18.2478C110.231 19.1718 109.813 20.5138 109.813 22.2737V30.4905H106.414ZM134.273 30.9525C132.711 30.9525 131.292 30.6225 130.016 29.9625C128.762 29.3025 127.761 28.3455 127.013 27.0916C126.287 25.8376 125.924 24.3307 125.924 22.5707V22.1417C125.924 20.3818 126.287 18.8858 127.013 17.6538C127.761 16.3999 128.762 15.4429 130.016 14.7829C131.292 14.1009 132.711 13.7599 134.273 13.7599C135.835 13.7599 137.166 14.0459 138.266 14.6179C139.365 15.1899 140.245 15.9489 140.905 16.8949C141.587 17.8408 142.027 18.8858 142.225 20.0298L138.926 20.7228C138.816 19.9968 138.585 19.3368 138.233 18.7428C137.881 18.1488 137.386 17.6758 136.748 17.3238C136.11 16.9719 135.307 16.7959 134.339 16.7959C133.393 16.7959 132.535 17.0159 131.765 17.4558C131.017 17.8738 130.423 18.4898 129.983 19.3038C129.543 20.0958 129.323 21.0637 129.323 22.2077V22.5047C129.323 23.6487 129.543 24.6276 129.983 25.4416C130.423 26.2556 131.017 26.8716 131.765 27.2896C132.535 27.7076 133.393 27.9166 134.339 27.9166C135.769 27.9166 136.858 27.5536 137.606 26.8276C138.354 26.0796 138.827 25.1336 139.025 23.9897L142.324 24.7486C142.06 25.8706 141.587 26.9046 140.905 27.8506C140.245 28.7965 139.365 29.5555 138.266 30.1275C137.166 30.6775 135.835 30.9525 134.273 30.9525ZM146.245 30.4905V7.39113H149.643V16.5319H150.171C150.391 16.1139 150.699 15.7069 151.095 15.3109C151.513 14.9149 152.052 14.5959 152.712 14.3539C153.394 14.0899 154.252 13.9579 155.286 13.9579C156.518 13.9579 157.607 14.2329 158.553 14.7829C159.521 15.3329 160.28 16.1139 160.83 17.1259C161.38 18.1158 161.655 19.3148 161.655 20.7228V30.4905H158.256V20.9867C158.256 19.5788 157.904 18.5448 157.2 17.8848C156.496 17.2029 155.528 16.8619 154.296 16.8619C152.888 16.8619 151.755 17.3238 150.897 18.2478C150.061 19.1718 149.643 20.5138 149.643 22.2737V30.4905H146.245Z" fill="#FFE3E2"/>
    <path d="M49.4686 30.4905H48.8086V31.1505H49.4686V30.4905ZM49.4686 7.39113V6.73114H48.8086V7.39113H49.4686ZM53.0325 7.39113H53.6925V6.73114H53.0325V7.39113ZM53.0325 27.2566H52.3725V27.9165H53.0325V27.2566ZM64.1532 27.2566H64.8132V26.5966H64.1532V27.2566ZM64.1532 30.4905V31.1505H64.8132V30.4905H64.1532ZM50.1286 30.4905V7.39113H48.8086V30.4905H50.1286ZM49.4686 8.05111H53.0325V6.73114H49.4686V8.05111ZM52.3725 7.39113V27.2566H53.6925V7.39113H52.3725ZM53.0325 27.9165H64.1532V26.5966H53.0325V27.9165ZM63.4932 27.2566V30.4905H64.8132V27.2566H63.4932ZM64.1532 29.8305H49.4686V31.1505H64.1532V29.8305ZM69.4313 30.3585L69.1659 30.9628L69.1713 30.9651L69.4313 30.3585ZM67.2533 28.6095L66.7089 28.9828L66.7163 28.9931L67.2533 28.6095ZM67.2533 23.0327L66.7216 22.6417L66.7196 22.6445L67.2533 23.0327ZM69.4643 21.3497L69.2216 20.736L69.2166 20.738L69.4643 21.3497ZM77.615 20.7888V21.4487H78.275V20.7888H77.615ZM76.7571 17.4558L76.2904 17.9225L76.7571 17.4558ZM70.2232 19.5678L70.0204 20.1958L70.7084 20.418L70.8671 19.7127L70.2232 19.5678ZM67.0553 18.5448L66.4232 18.3552L66.2375 18.9742L66.8525 19.1729L67.0553 18.5448ZM68.3093 16.1689L67.7985 15.751L67.7971 15.7527L68.3093 16.1689ZM79.133 15.3769L79.572 14.8841L79.133 15.3769ZM83.2579 27.6526H83.9179V26.9926H83.2579V27.6526ZM83.2579 30.4905V31.1505H83.9179V30.4905H83.2579ZM78.836 29.8965L79.2539 29.3857L78.836 29.8965ZM78.11 28.1805H78.77V27.5206H78.11V28.1805ZM77.615 28.1805V27.5206H77.219L77.0327 27.87L77.615 28.1805ZM76.8231 29.3355L77.3384 29.7478L76.8231 29.3355ZM75.2721 30.4905L75.5437 31.092L75.5517 31.0884L75.5596 31.0846L75.2721 30.4905ZM76.3611 26.9926L76.8082 27.4781L76.815 27.4717L76.3611 26.9926ZM77.615 23.4287H78.275V22.7687H77.615V23.4287ZM70.6852 24.0227L71.0563 24.5684L71.0637 24.5634L71.0709 24.5583L70.6852 24.0227ZM72.5662 30.2925C71.4754 30.2925 70.521 30.1075 69.6912 29.7519L69.1713 30.9651C70.1895 31.4015 71.325 31.6124 72.5662 31.6124V30.2925ZM69.6966 29.7542C68.8987 29.4039 68.2684 28.8951 67.7904 28.2259L66.7163 28.9931C67.3382 29.8639 68.1599 30.5211 69.166 30.9628L69.6966 29.7542ZM67.7976 28.2363C67.3577 27.5947 67.1213 26.7956 67.1213 25.8046H65.8014C65.8014 27.0135 66.093 28.0844 66.709 28.9828L67.7976 28.2363ZM67.1213 25.8046C67.1213 24.7869 67.3597 24.0085 67.7871 23.4209L66.7196 22.6445C66.091 23.5088 65.8014 24.5784 65.8014 25.8046H67.1213ZM67.785 23.4237C68.2572 22.7814 68.8925 22.2931 69.7119 21.9615L69.2166 20.738C68.188 21.1543 67.3494 21.788 66.7216 22.6417L67.785 23.4237ZM69.7069 21.9635C70.5638 21.6247 71.5466 21.4487 72.6652 21.4487V20.1288C71.4079 20.1288 70.2566 20.3268 69.2216 20.736L69.7069 21.9635ZM72.6652 21.4487H77.615V20.1288H72.6652V21.4487ZM78.275 20.7888V19.7328H76.955V20.7888H78.275ZM78.275 19.7328C78.275 18.6438 77.9404 17.7058 77.2237 16.9892L76.2904 17.9225C76.7177 18.3498 76.955 18.9298 76.955 19.7328H78.275ZM77.2237 16.9892C76.4802 16.2456 75.3984 15.9379 74.1171 15.9379V17.2578C75.2118 17.2578 75.89 17.5221 76.2904 17.9225L77.2237 16.9892ZM74.1171 15.9379C72.8555 15.9379 71.7834 16.2353 71.0046 16.9305L71.8838 17.9151C72.337 17.5105 73.0468 17.2578 74.1171 17.2578V15.9379ZM71.0046 16.9305C70.2765 17.5807 69.8046 18.4217 69.5794 19.4229L70.8671 19.7127C71.0378 18.9539 71.38 18.365 71.8838 17.9151L71.0046 16.9305ZM70.426 18.9397L67.2581 17.9168L66.8525 19.1729L70.0204 20.1958L70.426 18.9397ZM67.6875 18.7345C67.927 17.936 68.3046 17.2212 68.8215 16.5851L67.7971 15.7527C67.17 16.5245 66.7116 17.3937 66.4232 18.3552L67.6875 18.7345ZM68.8201 16.5868C69.3418 15.9491 70.0372 15.4245 70.9253 15.0208L70.3791 13.8191C69.3313 14.2954 68.4647 14.9367 67.7985 15.751L68.8201 16.5868ZM70.9253 15.0208C71.7869 14.6291 72.8547 14.4199 74.1501 14.4199V13.1C72.7176 13.1 71.4535 13.3308 70.3791 13.8191L70.9253 15.0208ZM74.1501 14.4199C76.1504 14.4199 77.6378 14.9287 78.694 15.8697L79.572 14.8841C78.2083 13.6692 76.3737 13.1 74.1501 13.1V14.4199ZM78.694 15.8697C79.7328 16.7952 80.288 18.1268 80.288 19.9638H81.6079C81.6079 17.8409 80.9531 16.1146 79.572 14.8841L78.694 15.8697ZM80.288 19.9638V26.6626H81.6079V19.9638H80.288ZM80.288 26.6626C80.288 27.0834 80.3852 27.5219 80.6964 27.8554C81.0157 28.1974 81.4501 28.3125 81.8719 28.3125V26.9926C81.775 26.9926 81.7183 26.9794 81.6896 26.9692C81.6759 26.9642 81.6687 26.9601 81.6658 26.9582C81.663 26.9564 81.662 26.9554 81.6614 26.9547C81.6607 26.954 81.6579 26.9509 81.6537 26.9434C81.6493 26.9356 81.6428 26.9218 81.6359 26.8996C81.6217 26.854 81.6079 26.7783 81.6079 26.6626H80.288ZM81.8719 28.3125H83.2579V26.9926H81.8719V28.3125ZM82.5979 27.6526V30.4905H83.9179V27.6526H82.5979ZM83.2579 29.8305H80.7169V31.1505H83.2579V29.8305ZM80.7169 29.8305C80.063 29.8305 79.5946 29.6645 79.2539 29.3857L78.4181 30.4073C79.0453 30.9205 79.831 31.1505 80.7169 31.1505V29.8305ZM79.2539 29.3857C78.9383 29.1274 78.77 28.784 78.77 28.2795H77.45C77.45 29.139 77.7657 29.8736 78.4181 30.4073L79.2539 29.3857ZM78.77 28.2795V28.1805H77.45V28.2795H78.77ZM78.11 27.5206H77.615V28.8405H78.11V27.5206ZM77.0327 27.87C76.8828 28.1509 76.6457 28.5008 76.3077 28.9232L77.3384 29.7478C77.7044 29.2903 77.9952 28.8701 78.1974 28.4911L77.0327 27.87ZM76.3077 28.9232C76.0345 29.2647 75.607 29.5952 74.9846 29.8964L75.5596 31.0846C76.3011 30.7258 76.9076 30.2863 77.3384 29.7478L76.3077 28.9232ZM75.0005 29.889C74.4356 30.1441 73.637 30.2925 72.5662 30.2925V31.6124C73.7393 31.6124 74.7446 31.4528 75.5437 31.092L75.0005 29.889ZM73.0612 28.8075C74.5557 28.8075 75.8268 28.3819 76.8082 27.478L75.9139 26.5071C75.2234 27.1432 74.2945 27.4876 73.0612 27.4876V28.8075ZM76.815 27.4717C77.8067 26.5322 78.275 25.2676 78.275 23.7587H76.955C76.955 24.9776 76.5874 25.869 75.9072 26.5135L76.815 27.4717ZM78.275 23.7587V23.4287H76.955V23.7587H78.275ZM77.615 22.7687H72.8632V24.0887H77.615V22.7687ZM72.8632 22.7687C71.8681 22.7687 70.9938 22.9872 70.2996 23.4871L71.0709 24.5583C71.4766 24.2661 72.0543 24.0887 72.8632 24.0887V22.7687ZM70.3141 23.4769C69.5586 23.9906 69.2003 24.7709 69.2003 25.7056H70.5202C70.5202 25.1444 70.7119 24.8027 71.0563 24.5684L70.3141 23.4769ZM69.2003 25.7056C69.2003 26.6498 69.5746 27.4405 70.3158 28.0107L71.1206 26.9644C70.7178 26.6546 70.5202 26.2574 70.5202 25.7056H69.2003ZM70.3158 28.0107C71.0393 28.5672 71.979 28.8075 73.0612 28.8075V27.4876C72.1634 27.4876 71.5411 27.2879 71.1206 26.9644L70.3158 28.0107ZM89.0807 29.9625L89.4067 29.3887L89.0807 29.9625ZM86.8037 27.6196L86.2239 27.9347L86.8037 27.6196ZM85.9787 14.2219V13.562H85.3188V14.2219H85.9787ZM89.3777 14.2219H90.0376V13.562H89.3777V14.2219ZM90.4336 26.8936L89.9743 27.3677L89.9822 27.3751L90.4336 26.8936ZM96.7034 26.4976L96.2146 26.0542L96.2141 26.0548L96.7034 26.4976ZM97.9904 14.2219V13.562H97.3304V14.2219H97.9904ZM101.389 14.2219H102.049V13.562H101.389V14.2219ZM101.389 30.4905V31.1505H102.049V30.4905H101.389ZM98.0564 30.4905H97.3964V31.1505H98.0564V30.4905ZM98.0564 28.0485H98.7164V27.3886H98.0564V28.0485ZM97.5284 28.0485V27.3886H97.1081L96.9304 27.7694L97.5284 28.0485ZM95.8785 29.9295L96.2649 30.4646L96.2745 30.4575L95.8785 29.9295ZM92.3806 30.1275C91.2504 30.1275 90.265 29.8763 89.4067 29.3887L88.7546 30.5363C89.8323 31.1486 91.0468 31.4475 92.3806 31.4475V30.1275ZM89.4067 29.3887C88.5496 28.9017 87.8769 28.2121 87.3836 27.3044L86.2239 27.9347C86.8305 29.051 87.6757 29.9233 88.7546 30.5363L89.4067 29.3887ZM87.3836 27.3044C86.8967 26.4084 86.6387 25.3118 86.6387 23.9897H85.3188C85.3188 25.4835 85.6108 26.8067 86.2239 27.9347L87.3836 27.3044ZM86.6387 23.9897V14.2219H85.3188V23.9897H86.6387ZM85.9787 14.8819H89.3777V13.562H85.9787V14.8819ZM88.7177 14.2219V23.7587H90.0376V14.2219H88.7177ZM88.7177 23.7587C88.7177 25.2665 89.0948 26.5155 89.9744 27.3676L90.8928 26.4196C90.3645 25.9077 90.0376 25.0667 90.0376 23.7587H88.7177ZM89.9822 27.3751C90.8417 28.1808 92.0007 28.5435 93.3705 28.5435V27.2236C92.2324 27.2236 91.4335 26.9263 90.885 26.4121L89.9822 27.3751ZM93.3705 28.5435C94.9197 28.5435 96.2169 28.019 97.1928 26.9404L96.2141 26.0548C95.518 26.8241 94.5933 27.2236 93.3705 27.2236V28.5435ZM97.1923 26.941C98.1961 25.8342 98.6504 24.3002 98.6504 22.4387H97.3304C97.3304 24.0971 96.9267 25.269 96.2146 26.0542L97.1923 26.941ZM98.6504 22.4387V14.2219H97.3304V22.4387H98.6504ZM97.9904 14.8819H101.389V13.562H97.9904V14.8819ZM100.729 14.2219V30.4905H102.049V14.2219H100.729ZM101.389 29.8305H98.0564V31.1505H101.389V29.8305ZM98.7164 30.4905V28.0485H97.3964V30.4905H98.7164ZM98.0564 27.3886H97.5284V28.7085H98.0564V27.3886ZM96.9304 27.7694C96.6818 28.3022 96.2174 28.8503 95.4825 29.4015L96.2745 30.4575C97.1235 29.8207 97.7591 29.1149 98.1265 28.3276L96.9304 27.7694ZM95.4921 29.3945C94.8606 29.8505 93.856 30.1275 92.3806 30.1275V31.4475C93.9851 31.4475 95.3124 31.1524 96.2649 30.4645L95.4921 29.3945ZM106.414 30.4905H105.754V31.1505H106.414V30.4905ZM106.414 14.2219V13.562H105.754V14.2219H106.414ZM109.747 14.2219H110.407V13.562H109.747V14.2219ZM109.747 16.6639H109.087V17.3238H109.747V16.6639ZM110.275 16.6639V17.3238H110.695L110.873 16.943L110.275 16.6639ZM111.925 14.8159L112.311 15.351L111.925 14.8159ZM118.722 14.7829L118.391 15.3535L118.396 15.3567L118.722 14.7829ZM120.999 17.1259L120.419 17.441L120.422 17.4464L120.999 17.1259ZM121.824 30.4905V31.1505H122.484V30.4905H121.824ZM118.425 30.4905H117.765V31.1505H118.425V30.4905ZM117.369 17.8848L116.91 18.3589L116.918 18.3663L117.369 17.8848ZM111.067 18.2478L110.583 17.7987L110.577 17.805L111.067 18.2478ZM109.813 30.4905V31.1505H110.473V30.4905H109.813ZM107.074 30.4905V14.2219H105.754V30.4905H107.074ZM106.414 14.8819H109.747V13.562H106.414V14.8819ZM109.087 14.2219V16.6639H110.407V14.2219H109.087ZM109.747 17.3238H110.275V16.0039H109.747V17.3238ZM110.873 16.943C111.12 16.4139 111.58 15.8787 112.311 15.351L111.538 14.2809C110.685 14.8971 110.046 15.5939 109.677 16.3848L110.873 16.943ZM112.311 15.351C112.941 14.8958 113.956 14.6179 115.455 14.6179V13.298C113.831 13.298 112.492 13.5921 111.538 14.2809L112.311 15.351ZM115.455 14.6179C116.586 14.6179 117.558 14.8692 118.391 15.3535L119.054 14.2124C117.995 13.5967 116.789 13.298 115.455 13.298V14.6179ZM118.396 15.3567C119.253 15.8437 119.926 16.5333 120.419 17.441L121.579 16.8107C120.972 15.6944 120.127 14.8221 119.048 14.2091L118.396 15.3567ZM120.422 17.4464C120.906 18.3172 121.164 19.4 121.164 20.7228H122.484C122.484 19.2295 122.192 17.9145 121.576 16.8053L120.422 17.4464ZM121.164 20.7228V30.4905H122.484V20.7228H121.164ZM121.824 29.8305H118.425V31.1505H121.824V29.8305ZM119.085 30.4905V20.9867H117.765V30.4905H119.085ZM119.085 20.9867C119.085 19.4809 118.709 18.236 117.821 17.4034L116.918 18.3663C117.438 18.8536 117.765 19.6767 117.765 20.9867H119.085ZM117.829 17.4108C116.972 16.5809 115.823 16.2019 114.465 16.2019V17.5218C115.572 17.5218 116.359 17.8248 116.91 18.3589L117.829 17.4108ZM114.465 16.2019C112.898 16.2019 111.581 16.7238 110.583 17.7987L111.55 18.6969C112.268 17.9238 113.217 17.5218 114.465 17.5218V16.2019ZM110.577 17.805C109.593 18.8924 109.153 20.4174 109.153 22.2737H110.473C110.473 20.6101 110.868 19.4512 111.556 18.6906L110.577 17.805ZM109.153 22.2737V30.4905H110.473V22.2737H109.153ZM109.813 29.8305H106.414V31.1505H109.813V29.8305ZM130.016 29.9625L129.708 30.5465L129.713 30.5487L130.016 29.9625ZM127.013 27.0916L126.442 27.4223L126.446 27.4297L127.013 27.0916ZM127.013 17.6538L126.446 17.3157L126.444 17.3188L127.013 17.6538ZM130.016 14.7829L130.323 15.367L130.327 15.365L130.016 14.7829ZM138.266 14.6179L138.57 14.0324V14.0324L138.266 14.6179ZM140.905 16.8949L140.364 17.2725L140.37 17.2808L140.905 16.8949ZM142.225 20.0298L142.361 20.6757L142.984 20.5448L142.876 19.9172L142.225 20.0298ZM138.926 20.7228L138.273 20.8216L138.378 21.5122L139.061 21.3686L138.926 20.7228ZM138.233 18.7428L137.665 19.0793L138.233 18.7428ZM136.748 17.3238L137.066 16.746L136.748 17.3238ZM131.765 17.4558L132.087 18.032L132.092 18.0289L131.765 17.4558ZM129.983 19.3038L130.56 19.6243L130.563 19.6176L129.983 19.3038ZM129.983 25.4416L130.563 25.1278V25.1278L129.983 25.4416ZM131.765 27.2896L131.443 27.8657L131.45 27.8696L131.765 27.2896ZM137.606 26.8276L138.065 27.3012L138.072 27.2943L137.606 26.8276ZM139.024 23.9897L139.172 23.3465L138.493 23.1902L138.374 23.8771L139.024 23.9897ZM142.324 24.7486L142.967 24.8998L143.119 24.2541L142.472 24.1055L142.324 24.7486ZM140.905 27.8506L140.37 27.4645L140.364 27.4729L140.905 27.8506ZM138.266 30.1275L138.561 30.7179L138.57 30.713L138.266 30.1275ZM134.273 30.2925C132.807 30.2925 131.493 29.9836 130.319 29.3763L129.713 30.5487C131.09 31.2613 132.615 31.6124 134.273 31.6124V30.2925ZM130.323 29.3785C129.18 28.7768 128.267 27.9065 127.58 26.7535L126.446 27.4297C127.254 28.7846 128.344 29.8282 129.708 30.5465L130.323 29.3785ZM127.584 26.7609C126.928 25.627 126.584 24.2394 126.584 22.5707H125.264C125.264 24.4219 125.646 26.0483 126.442 27.4222L127.584 26.7609ZM126.584 22.5707V22.1417H125.264V22.5707H126.584ZM126.584 22.1417C126.584 20.4726 126.928 19.0983 127.581 17.9889L126.444 17.3188C125.646 18.6733 125.264 20.291 125.264 22.1417H126.584ZM127.58 17.9919C128.267 16.8389 129.18 15.9686 130.323 15.3669L129.708 14.1989C128.344 14.9172 127.254 15.9608 126.446 17.3157L127.58 17.9919ZM130.327 15.365C131.5 14.7382 132.81 14.4199 134.273 14.4199V13.1C132.611 13.1 131.084 13.4637 129.705 14.2009L130.327 15.365ZM134.273 14.4199C135.756 14.4199 136.976 14.6915 137.961 15.2035L138.57 14.0324C137.355 13.4004 135.914 13.1 134.273 13.1V14.4199ZM137.961 15.2035C138.974 15.7301 139.77 16.4204 140.364 17.2725L141.447 16.5172C140.721 15.4774 139.757 14.6498 138.57 14.0324L137.961 15.2035ZM140.37 17.2808C140.994 18.1459 141.394 19.0975 141.575 20.1423L142.876 19.9172C142.661 18.6741 142.181 17.5357 141.441 16.5089L140.37 17.2808ZM142.09 19.3839L138.79 20.0769L139.061 21.3686L142.361 20.6757L142.09 19.3839ZM139.578 20.6239C139.456 19.8194 139.198 19.0779 138.8 18.4063L137.665 19.0793C137.971 19.5957 138.175 20.1742 138.273 20.8216L139.578 20.6239ZM138.8 18.4063C138.385 17.7055 137.801 17.1515 137.066 16.746L136.429 17.9017C136.97 18.2001 137.376 18.5922 137.665 19.0793L138.8 18.4063ZM137.066 16.746C136.304 16.3253 135.383 16.1359 134.339 16.1359V17.4558C135.23 17.4558 135.915 17.6184 136.429 17.9017L137.066 16.746ZM134.339 16.1359C133.286 16.1359 132.314 16.382 131.437 16.8828L132.092 18.0289C132.756 17.6497 133.5 17.4558 134.339 17.4558V16.1359ZM131.443 16.8797C130.577 17.3637 129.897 18.0749 129.402 18.99L130.563 19.6176C130.949 18.9047 131.457 18.384 132.087 18.032L131.443 16.8797ZM129.406 18.9833C128.899 19.8958 128.663 20.9805 128.663 22.2077H129.983C129.983 21.147 130.187 20.2957 130.56 19.6243L129.406 18.9833ZM128.663 22.2077V22.5047H129.983V22.2077H128.663ZM128.663 22.5047C128.663 23.7327 128.899 24.8249 129.402 25.7555L130.563 25.1278C130.186 24.4304 129.983 23.5646 129.983 22.5047H128.663ZM129.402 25.7555C129.897 26.6705 130.577 27.3817 131.443 27.8657L132.087 26.7134C131.457 26.3615 130.949 25.8407 130.563 25.1278L129.402 25.7555ZM131.45 27.8696C132.324 28.3442 133.292 28.5765 134.339 28.5765V27.2566C133.494 27.2566 132.745 27.0709 132.08 26.7095L131.45 27.8696ZM134.339 28.5765C135.875 28.5765 137.154 28.1854 138.065 27.3012L137.146 26.354C136.561 26.9218 135.662 27.2566 134.339 27.2566V28.5765ZM138.072 27.2943C138.926 26.4406 139.456 25.3666 139.675 24.1022L138.374 23.8771C138.197 24.9006 137.781 25.7186 137.139 26.3609L138.072 27.2943ZM138.877 24.6328L142.176 25.3918L142.472 24.1055L139.172 23.3465L138.877 24.6328ZM141.682 24.5975C141.438 25.6339 141.002 26.5882 140.37 27.4646L141.441 28.2365C142.173 27.2209 142.683 26.1073 142.967 24.8998L141.682 24.5975ZM140.364 27.4729C139.77 28.325 138.974 29.0154 137.961 29.5419L138.57 30.713C139.757 30.0957 140.721 29.268 141.447 28.2282L140.364 27.4729ZM137.97 29.5372C136.983 30.0307 135.759 30.2925 134.273 30.2925V31.6124C135.91 31.6124 137.348 31.3243 138.561 30.7178L137.97 29.5372ZM146.245 30.4905H145.585V31.1505H146.245V30.4905ZM146.245 7.39113V6.73114H145.585V7.39113H146.245ZM149.644 7.39113H150.303V6.73114H149.644V7.39113ZM149.644 16.5319H148.984V17.1919H149.644V16.5319ZM150.171 16.5319V17.1919H150.57L150.756 16.8393L150.171 16.5319ZM151.095 15.3109L150.642 14.8318L150.635 14.8379L150.629 14.8442L151.095 15.3109ZM152.712 14.3539L152.94 14.9737L152.951 14.9694L152.712 14.3539ZM158.553 14.7829L158.222 15.3535L158.227 15.3567L158.553 14.7829ZM160.83 17.1259L160.25 17.441L160.253 17.4464L160.83 17.1259ZM161.655 30.4905V31.1505H162.315V30.4905H161.655ZM158.256 30.4905H157.596V31.1505H158.256V30.4905ZM157.2 17.8848L156.741 18.3589L156.749 18.3663L157.2 17.8848ZM150.897 18.2478L150.414 17.7987L150.408 17.805L150.897 18.2478ZM149.644 30.4905V31.1505H150.303V30.4905H149.644ZM146.905 30.4905V7.39113H145.585V30.4905H146.905ZM146.245 8.05111H149.644V6.73114H146.245V8.05111ZM148.984 7.39113V16.5319H150.303V7.39113H148.984ZM149.644 17.1919H150.171V15.8719H149.644V17.1919ZM150.756 16.8393C150.94 16.4897 151.205 16.1351 151.562 15.7776L150.629 14.8442C150.194 15.2787 149.843 15.7381 149.587 16.2245L150.756 16.8393ZM151.549 15.79C151.889 15.4679 152.346 15.1913 152.94 14.9736L152.485 13.7343C151.759 14.0005 151.137 14.362 150.642 14.8318L151.549 15.79ZM152.951 14.9694C153.532 14.7443 154.303 14.6179 155.286 14.6179V13.298C154.202 13.298 153.257 13.4356 152.474 13.7385L152.951 14.9694ZM155.286 14.6179C156.417 14.6179 157.388 14.8692 158.222 15.3535L158.885 14.2124C157.826 13.5967 156.62 13.298 155.286 13.298V14.6179ZM158.227 15.3567C159.084 15.8437 159.757 16.5333 160.25 17.441L161.41 16.8107C160.803 15.6944 159.958 14.8221 158.879 14.2091L158.227 15.3567ZM160.253 17.4464C160.737 18.3172 160.995 19.4 160.995 20.7228H162.315C162.315 19.2295 162.023 17.9145 161.407 16.8053L160.253 17.4464ZM160.995 20.7228V30.4905H162.315V20.7228H160.995ZM161.655 29.8305H158.256V31.1505H161.655V29.8305ZM158.916 30.4905V20.9867H157.596V30.4905H158.916ZM158.916 20.9867C158.916 19.4809 158.54 18.236 157.652 17.4034L156.749 18.3663C157.269 18.8536 157.596 19.6767 157.596 20.9867H158.916ZM157.66 17.4108C156.803 16.5809 155.654 16.2019 154.296 16.2019V17.5218C155.403 17.5218 156.19 17.8248 156.741 18.3589L157.66 17.4108ZM154.296 16.2019C152.729 16.2019 151.412 16.7238 150.414 17.7987L151.381 18.6969C152.099 17.9238 153.048 17.5218 154.296 17.5218V16.2019ZM150.408 17.805C149.424 18.8924 148.984 20.4174 148.984 22.2737H150.303C150.303 20.6101 150.699 19.4512 151.387 18.6906L150.408 17.805ZM148.984 22.2737V30.4905H150.303V22.2737H148.984ZM149.644 29.8305H146.245V31.1505H149.644V29.8305Z" fill="#EDE3FE" mask="url(#path-4-outside-1_1_137)"/>
</svg>
