<svg width="18" height="18" viewBox="0 0 18 18" fill="none" xmlns="http://www.w3.org/2000/svg">
<path d="M9 0.25C4.17 0.25 0.25 4.17 0.25 9C0.25 13.83 4.17 17.75 9 17.75C13.83 17.75 17.75 13.83 17.75 9C17.75 4.17 13.83 0.25 9 0.25ZM13.06 6.2C12.9287 7.5825 12.36 10.9425 12.0712 12.4913C11.9488 13.1475 11.7037 13.3663 11.4762 13.3925C10.9688 13.4363 10.5837 13.06 10.0938 12.7362C9.32375 12.2288 8.88625 11.9138 8.1425 11.4237C7.27625 10.855 7.83625 10.54 8.335 10.0325C8.46625 9.90125 10.7063 7.8625 10.75 7.67875C10.7561 7.65092 10.7553 7.62203 10.7476 7.59458C10.74 7.56713 10.7258 7.54196 10.7063 7.52125C10.6537 7.4775 10.5837 7.495 10.5225 7.50375C10.4437 7.52125 9.21875 8.335 6.83 9.945C6.48 10.1812 6.165 10.3038 5.885 10.295C5.57 10.2862 4.975 10.12 4.52875 9.97125C3.9775 9.79625 3.54875 9.7 3.58375 9.39375C3.60125 9.23625 3.82 9.07875 4.23125 8.9125C6.78625 7.80125 8.48375 7.06625 9.3325 6.71625C11.765 5.70125 12.2638 5.52625 12.5963 5.52625C12.6663 5.52625 12.8325 5.54375 12.9375 5.63125C13.025 5.70125 13.0512 5.7975 13.06 5.8675C13.0512 5.92 13.0687 6.0775 13.06 6.2Z" fill="white"/>
</svg>
