<svg width="18" height="18" viewBox="0 0 18 18" fill="none" xmlns="http://www.w3.org/2000/svg">
<path d="M6.18352 4.54883L12.9035 13.3951H11.8623L5.07227 4.54883H6.18352Z" fill="white"/>
<path d="M13.375 0.25H4.625C3.46468 0.25 2.35188 0.710936 1.53141 1.53141C0.710936 2.35188 0.25 3.46468 0.25 4.625V13.375C0.25 14.5353 0.710936 15.6481 1.53141 16.4686C2.35188 17.2891 3.46468 17.75 4.625 17.75H13.375C14.5353 17.75 15.6481 17.2891 16.4686 16.4686C17.2891 15.6481 17.75 14.5353 17.75 13.375V4.625C17.75 3.46468 17.2891 2.35188 16.4686 1.53141C15.6481 0.710936 14.5353 0.25 13.375 0.25ZM11.345 14.5125L8.3875 10.6625L4.9925 14.5125H3.12L7.495 9.51625L2.875 3.4875H6.75125L9.42875 6.9875L12.5 3.4875H14.3725L10.295 8.125L15.125 14.5125H11.345Z" fill="white"/>
</svg>
