<svg width="18" height="18" viewBox="0 0 18 18" fill="none" xmlns="http://www.w3.org/2000/svg">
<path d="M9.00001 0.25C13.8326 0.25 17.75 4.16737 17.75 8.99999C17.75 13.8326 13.8326 17.75 9.00001 17.75C7.45369 17.7525 5.93458 17.3433 4.59876 16.5644L0.253512 17.75L1.43651 13.403C0.656968 12.0668 0.247429 10.547 0.250012 8.99999C0.250012 4.16737 4.16739 0.25 9.00001 0.25ZM6.01801 4.8875L5.84301 4.8945C5.72971 4.9014 5.61899 4.93116 5.51751 4.982C5.42259 5.03575 5.33594 5.10294 5.26026 5.1815C5.15526 5.28037 5.09576 5.36612 5.03188 5.44925C4.70824 5.87004 4.53399 6.38664 4.53663 6.9175C4.53838 7.34625 4.65038 7.76362 4.82538 8.15387C5.18326 8.94312 5.77213 9.77874 6.54913 10.5531C6.73638 10.7395 6.92013 10.9267 7.11788 11.1009C8.08335 11.9509 9.23385 12.5639 10.4779 12.8911L10.9749 12.9672C11.1368 12.976 11.2986 12.9637 11.4614 12.9559C11.7162 12.9427 11.965 12.8737 12.1903 12.7537C12.3048 12.6947 12.4167 12.6305 12.5254 12.5612C12.5254 12.5612 12.563 12.5367 12.6348 12.4825C12.7529 12.395 12.8255 12.3329 12.9235 12.2305C12.9961 12.1552 13.0591 12.0669 13.1073 11.9662C13.1755 11.8236 13.2438 11.5515 13.2718 11.3249C13.2928 11.1516 13.2866 11.0571 13.284 10.9985C13.2805 10.9049 13.2026 10.8077 13.1178 10.7666L12.6085 10.5382C12.6085 10.5382 11.8473 10.2066 11.3818 9.99487C11.333 9.9736 11.2808 9.96144 11.2278 9.95899C11.1679 9.95284 11.1074 9.95958 11.0503 9.97875C10.9933 9.99792 10.941 10.0291 10.897 10.0701C10.8926 10.0684 10.834 10.1182 10.2014 10.8847C10.1651 10.9335 10.1151 10.9704 10.0577 10.9907C10.0004 11.0109 9.93828 11.0136 9.87938 10.9985C9.82238 10.9832 9.76653 10.9639 9.71226 10.9407C9.60375 10.8952 9.56613 10.8777 9.49176 10.8462C8.98956 10.6271 8.52461 10.331 8.11363 9.96862C8.00338 9.87237 7.90101 9.76737 7.79601 9.66587C7.45177 9.33619 7.15177 8.96325 6.90351 8.55637L6.85188 8.47324C6.8148 8.41739 6.78482 8.35713 6.76263 8.29387C6.72938 8.16524 6.81601 8.062 6.81601 8.062C6.81601 8.062 7.02863 7.82924 7.12751 7.70324C7.22376 7.58074 7.30513 7.46175 7.35763 7.37687C7.46088 7.21062 7.49326 7.04 7.43901 6.90787C7.19401 6.30937 6.94026 5.7135 6.67951 5.122C6.62788 5.00475 6.47476 4.92075 6.33563 4.90412C6.28838 4.89887 6.24113 4.89362 6.19388 4.89012C6.07638 4.88428 5.95863 4.88545 5.84126 4.89362L6.01801 4.8875Z" fill="white"/>
</svg>
