<svg width="727" height="334" viewBox="0 0 727 334" fill="none" xmlns="http://www.w3.org/2000/svg">
<path d="M9.44043 138.594H0V260.076H727V98.933L713.169 94L703.218 98.933H690.46L678.213 102.88L667.751 94L655.759 102.88L645.042 106.037H634.325L612.382 117.679L601.41 112.548L589.162 119.454L579.466 115.705L567.474 117.679L554.971 110.772L544.254 115.705L533.537 110.772L522.055 115.705L511.339 112.548L489.65 119.454L477.402 115.705L467.196 130.109L457.5 128.136L431.474 130.109L412.847 138.594L401.11 149.25L388.097 150.828L377.38 163.654L367.939 146.882L344.72 143.33L333.238 125.571H322.266L313.59 132.082L300.832 137.41L288.84 128.136L277.868 132.082L267.151 128.136L253.628 136.226L245.463 130.109L231.939 135.042L222.243 132.082L213.313 138.594L199.789 141.356L188.307 153.985L176.825 157.142L164.833 171.152H153.606L143.144 173.125L132.683 195.619L120.69 188.911H108.953L76.8028 141.356L65.8309 160.694L54.0936 152.998H43.1218L32.1499 162.667L21.1781 157.142L9.44043 138.594Z" fill="url(#paint0_linear_1_1685)"/>
<path d="M0 139.504H9.42923L21.153 158.014L32.1118 163.528L43.0706 153.879H54.0294L65.7528 161.559L76.7116 142.26L108.824 189.718H120.547L132.525 196.413L142.974 173.965L153.423 171.995H164.637L176.615 158.014L188.084 154.863L199.552 142.26L213.06 139.504L221.98 133.005L231.664 135.959L245.172 131.036L253.327 137.141L266.834 129.067L277.538 133.005L288.497 129.067L300.475 138.322L313.218 133.005L321.883 126.507H332.842L344.311 144.23L367.503 147.775L376.932 164.513L387.636 151.713L400.634 150.138L412.357 139.504L430.962 131.036L456.957 129.067L466.642 131.036L476.836 116.661L489.069 120.403L510.732 113.511L521.436 116.661L532.904 111.738L543.608 116.661L554.312 111.738L566.8 118.631L578.778 116.661L588.463 120.403L600.696 113.511L611.655 118.631L633.573 107.012H644.277L654.981 103.862L666.959 95L677.408 103.862L689.641 99.923H702.384L712.323 95L724.556 99.923" stroke="#3F71F6" stroke-width="1.22185"/>
<path d="M30.2871 286.758H31.5107C31.5244 287.178 31.6748 287.519 31.9619 287.784C32.2536 288.043 32.6227 288.173 33.0693 288.173C33.6117 288.173 34.0264 288.016 34.3135 287.702C34.6006 287.383 34.7441 286.922 34.7441 286.321V279.211H35.9746V286.328C35.9746 287.262 35.7194 287.993 35.209 288.522C34.6986 289.046 33.9876 289.308 33.0762 289.308C32.2559 289.308 31.5859 289.071 31.0664 288.597C30.5469 288.119 30.2871 287.506 30.2871 286.758ZM43.542 281.966V289.076H42.4141V287.92H42.3867C41.9447 288.773 41.1927 289.199 40.1309 289.199C39.3607 289.199 38.7568 288.966 38.3193 288.501C37.8864 288.032 37.6699 287.392 37.6699 286.581V281.966H38.8594V286.369C38.8594 287.554 39.4062 288.146 40.5 288.146C41.0742 288.146 41.5254 287.966 41.8535 287.606C42.1862 287.241 42.3525 286.754 42.3525 286.143V281.966H43.542ZM45.1484 289.076V279.211H46.3379V289.076H45.1484Z" fill="#767E95"/>
<path d="M160.769 289.076L159.778 286.252H155.854L154.863 289.076H153.571L157.208 279.211H158.424L162.061 289.076H160.769ZM157.796 280.708L156.216 285.207H159.416L157.837 280.708H157.796ZM168.637 281.966V289.076H167.509V287.92H167.482C167.04 288.773 166.288 289.199 165.226 289.199C164.456 289.199 163.852 288.966 163.415 288.501C162.982 288.032 162.765 287.392 162.765 286.581V281.966H163.955V286.369C163.955 287.554 164.502 288.146 165.595 288.146C166.17 288.146 166.621 287.966 166.949 287.606C167.282 287.241 167.448 286.754 167.448 286.143V281.966H168.637ZM173.074 288.084C173.694 288.084 174.193 287.847 174.571 287.374C174.949 286.9 175.138 286.273 175.138 285.494C175.138 284.71 174.949 284.081 174.571 283.607C174.193 283.128 173.694 282.889 173.074 282.889C172.459 282.889 171.966 283.126 171.597 283.6C171.233 284.069 171.05 284.701 171.05 285.494C171.05 286.287 171.233 286.918 171.597 287.387C171.966 287.852 172.459 288.084 173.074 288.084ZM173.115 291.755C172.336 291.755 171.666 291.557 171.105 291.161C170.545 290.769 170.214 290.27 170.114 289.664H171.337C171.456 289.992 171.679 290.254 172.007 290.45C172.336 290.646 172.721 290.744 173.163 290.744C173.773 290.744 174.254 290.582 174.605 290.258C174.961 289.935 175.138 289.506 175.138 288.973V287.852H175.111C174.888 288.244 174.575 288.556 174.174 288.789C173.773 289.016 173.327 289.13 172.835 289.13C171.928 289.13 171.201 288.8 170.654 288.139C170.107 287.478 169.834 286.597 169.834 285.494C169.834 284.382 170.107 283.495 170.654 282.834C171.205 282.174 171.941 281.843 172.862 281.843C173.363 281.843 173.814 281.959 174.215 282.192C174.616 282.424 174.935 282.748 175.172 283.163H175.193V281.966H176.328V288.932C176.328 289.784 176.036 290.468 175.453 290.983C174.869 291.498 174.09 291.755 173.115 291.755Z" fill="#767E95"/>
<path d="M283.285 286.362H284.523C284.582 286.895 284.842 287.323 285.302 287.647C285.767 287.971 286.352 288.132 287.059 288.132C287.724 288.132 288.273 287.975 288.706 287.661C289.144 287.342 289.362 286.941 289.362 286.458C289.362 286.043 289.21 285.701 288.904 285.432C288.604 285.163 288.121 284.942 287.455 284.769L286.191 284.441C285.279 284.208 284.614 283.885 284.195 283.47C283.775 283.051 283.566 282.506 283.566 281.836C283.566 281.016 283.889 280.346 284.536 279.827C285.188 279.307 286.027 279.047 287.052 279.047C288.032 279.047 288.843 279.312 289.486 279.84C290.128 280.364 290.463 281.039 290.49 281.864H289.26C289.205 281.335 288.977 280.918 288.576 280.613C288.175 280.307 287.654 280.155 287.011 280.155C286.373 280.155 285.851 280.305 285.445 280.606C285.044 280.907 284.844 281.299 284.844 281.782C284.844 282.155 284.99 282.463 285.281 282.705C285.578 282.942 286.061 283.147 286.731 283.32L287.763 283.593C288.784 283.848 289.517 284.188 289.964 284.612C290.411 285.036 290.634 285.601 290.634 286.307C290.634 287.209 290.301 287.925 289.636 288.454C288.975 288.978 288.077 289.24 286.943 289.24C285.894 289.24 285.038 288.978 284.372 288.454C283.707 287.93 283.345 287.232 283.285 286.362ZM294.736 282.875C294.184 282.875 293.726 283.067 293.362 283.45C293.001 283.828 292.803 284.316 292.767 284.913H296.629C296.615 284.311 296.435 283.821 296.089 283.443C295.743 283.065 295.292 282.875 294.736 282.875ZM296.602 287.039H297.771C297.666 287.667 297.338 288.185 296.786 288.59C296.239 288.996 295.581 289.199 294.811 289.199C293.794 289.199 292.995 288.871 292.411 288.214C291.828 287.558 291.536 286.669 291.536 285.548C291.536 284.436 291.828 283.541 292.411 282.862C292.999 282.183 293.781 281.843 294.756 281.843C295.713 281.843 296.47 282.165 297.026 282.807C297.582 283.45 297.86 284.311 297.86 285.391V285.842H292.76V285.911C292.76 286.594 292.947 287.141 293.32 287.551C293.694 287.961 294.2 288.167 294.838 288.167C295.285 288.167 295.665 288.064 295.98 287.859C296.294 287.654 296.501 287.38 296.602 287.039ZM302.515 281.843C303.426 281.843 304.16 282.178 304.716 282.848C305.277 283.518 305.557 284.409 305.557 285.521C305.557 286.628 305.279 287.519 304.723 288.194C304.167 288.864 303.44 289.199 302.542 289.199C302.041 289.199 301.592 289.085 301.195 288.857C300.799 288.629 300.494 288.317 300.279 287.92H300.252V291.448H299.063V281.966H300.191V283.169H300.218C300.441 282.759 300.753 282.436 301.154 282.199C301.556 281.962 302.009 281.843 302.515 281.843ZM302.282 288.153C302.916 288.153 303.417 287.916 303.786 287.442C304.155 286.968 304.34 286.328 304.34 285.521C304.34 284.714 304.155 284.074 303.786 283.6C303.417 283.126 302.916 282.889 302.282 282.889C301.672 282.889 301.18 283.131 300.806 283.614C300.432 284.097 300.245 284.733 300.245 285.521C300.245 286.314 300.432 286.952 300.806 287.435C301.18 287.914 301.672 288.153 302.282 288.153Z" fill="#767E95"/>
<path d="M413.998 280.421C414.814 279.505 415.921 279.047 417.32 279.047C418.719 279.047 419.827 279.505 420.642 280.421C421.458 281.337 421.866 282.579 421.866 284.147C421.866 285.715 421.458 286.957 420.642 287.873C419.827 288.784 418.719 289.24 417.32 289.24C415.921 289.24 414.814 288.784 413.998 287.873C413.182 286.957 412.774 285.715 412.774 284.147C412.774 282.579 413.182 281.337 413.998 280.421ZM419.713 281.255C419.125 280.54 418.327 280.182 417.32 280.182C416.313 280.182 415.513 280.54 414.921 281.255C414.333 281.966 414.039 282.93 414.039 284.147C414.039 285.359 414.333 286.323 414.921 287.039C415.513 287.75 416.313 288.105 417.32 288.105C418.327 288.105 419.125 287.75 419.713 287.039C420.305 286.323 420.601 285.359 420.601 284.147C420.601 282.93 420.305 281.966 419.713 281.255ZM429.119 284.297H427.957C427.866 283.887 427.663 283.55 427.348 283.286C427.039 283.021 426.635 282.889 426.138 282.889C425.519 282.889 425.02 283.128 424.641 283.607C424.263 284.081 424.074 284.719 424.074 285.521C424.074 286.337 424.263 286.979 424.641 287.449C425.024 287.918 425.528 288.153 426.152 288.153C426.631 288.153 427.025 288.034 427.335 287.797C427.649 287.556 427.859 287.219 427.964 286.786H429.133C429.041 287.497 428.72 288.078 428.169 288.529C427.622 288.975 426.947 289.199 426.145 289.199C425.152 289.199 424.357 288.871 423.76 288.214C423.163 287.554 422.864 286.656 422.864 285.521C422.864 284.404 423.163 283.514 423.76 282.848C424.357 282.178 425.147 281.843 426.132 281.843C426.979 281.843 427.667 282.083 428.196 282.561C428.729 283.04 429.037 283.618 429.119 284.297ZM430.609 280.25H431.799V281.966H433.179V282.944H431.799V287.168C431.799 287.492 431.869 287.731 432.011 287.886C432.152 288.037 432.375 288.112 432.68 288.112C432.872 288.112 433.036 288.1 433.173 288.078V289.076C433.018 289.112 432.767 289.13 432.421 289.13C431.769 289.13 431.304 288.985 431.026 288.693C430.748 288.401 430.609 287.914 430.609 287.23V282.944H429.55V281.966H430.609V280.25Z" fill="#767E95"/>
<path d="M541.774 289.076H540.557V279.211H541.753L547.154 286.957H547.215V279.211H548.432V289.076H547.236L541.835 281.358H541.774V289.076ZM553.108 289.199C552.114 289.199 551.317 288.868 550.715 288.208C550.114 287.542 549.813 286.647 549.813 285.521C549.813 284.395 550.114 283.502 550.715 282.841C551.317 282.176 552.114 281.843 553.108 281.843C554.097 281.843 554.892 282.176 555.494 282.841C556.095 283.502 556.396 284.395 556.396 285.521C556.396 286.642 556.095 287.535 555.494 288.201C554.892 288.866 554.097 289.199 553.108 289.199ZM551.583 287.456C551.962 287.92 552.47 288.153 553.108 288.153C553.746 288.153 554.252 287.923 554.625 287.462C554.999 286.998 555.186 286.35 555.186 285.521C555.186 284.692 554.999 284.047 554.625 283.586C554.252 283.122 553.746 282.889 553.108 282.889C552.47 282.889 551.962 283.122 551.583 283.586C551.21 284.051 551.023 284.696 551.023 285.521C551.023 286.346 551.21 286.991 551.583 287.456ZM566.643 281.966L564.661 289.076H563.451L561.844 283.573H561.817L560.217 289.076H559.007L557.018 281.966H558.201L559.622 287.75H559.65L561.256 281.966H562.405L564.018 287.75H564.045L565.467 281.966H566.643Z" fill="#767E95"/>
<path d="M673.957 279.211H677.272C678.735 279.211 679.877 279.647 680.697 280.517C681.518 281.383 681.928 282.591 681.928 284.14C681.928 285.694 681.518 286.906 680.697 287.777C679.882 288.643 678.74 289.076 677.272 289.076H673.957V279.211ZM675.188 280.319V287.968H677.19C678.307 287.968 679.166 287.64 679.768 286.984C680.369 286.323 680.67 285.38 680.67 284.154C680.67 282.919 680.369 281.971 679.768 281.31C679.171 280.649 678.312 280.319 677.19 280.319H675.188ZM686.125 282.875C685.574 282.875 685.116 283.067 684.751 283.45C684.391 283.828 684.193 284.316 684.156 284.913H688.019C688.005 284.311 687.825 283.821 687.479 283.443C687.132 283.065 686.681 282.875 686.125 282.875ZM687.991 287.039H689.16C689.055 287.667 688.727 288.185 688.176 288.59C687.629 288.996 686.97 289.199 686.2 289.199C685.184 289.199 684.384 288.871 683.801 288.214C683.217 287.558 682.926 286.669 682.926 285.548C682.926 284.436 683.217 283.541 683.801 282.862C684.389 282.183 685.17 281.843 686.146 281.843C687.103 281.843 687.859 282.165 688.415 282.807C688.971 283.45 689.249 284.311 689.249 285.391V285.842H684.149V285.911C684.149 286.594 684.336 287.141 684.71 287.551C685.084 287.961 685.59 288.167 686.228 288.167C686.674 288.167 687.055 288.064 687.369 287.859C687.684 287.654 687.891 287.38 687.991 287.039ZM696.358 284.297H695.196C695.105 283.887 694.902 283.55 694.588 283.286C694.278 283.021 693.875 282.889 693.378 282.889C692.758 282.889 692.259 283.128 691.881 283.607C691.503 284.081 691.313 284.719 691.313 285.521C691.313 286.337 691.503 286.979 691.881 287.449C692.264 287.918 692.767 288.153 693.392 288.153C693.87 288.153 694.264 288.034 694.574 287.797C694.889 287.556 695.098 287.219 695.203 286.786H696.372C696.281 287.497 695.96 288.078 695.408 288.529C694.861 288.975 694.187 289.199 693.385 289.199C692.391 289.199 691.596 288.871 690.999 288.214C690.402 287.554 690.104 286.656 690.104 285.521C690.104 284.404 690.402 283.514 690.999 282.848C691.596 282.178 692.387 281.843 693.371 281.843C694.219 281.843 694.907 282.083 695.436 282.561C695.969 283.04 696.276 283.618 696.358 284.297Z" fill="#767E95"/>
<g clip-path="url(#clip0_1_1685)">
<path d="M31.418 20H51.9986V40.5806H31.418V20Z" fill="#F8F9FD"/>
<path d="M43.995 24.5735H51.9986V20H43.995V24.5735ZM31.418 40.5806H51.9986V36.0072H31.418V40.5806ZM43.995 32.5771H51.9986V28.0036H43.995V32.5771Z" fill="#EF5350"/>
<path d="M31.418 20H43.995V32.5771H31.418V20Z" fill="#1E88E9"/>
<path d="M34.1854 21.3946C34.194 21.3778 34.2071 21.3637 34.2233 21.3539C34.2394 21.3441 34.2579 21.3389 34.2768 21.3389C34.2957 21.3389 34.3143 21.3441 34.3304 21.3539C34.3465 21.3637 34.3596 21.3778 34.3683 21.3946L34.677 22.2064C34.6885 22.2522 34.7342 22.275 34.7685 22.275L35.6374 22.3208C35.7289 22.3208 35.7632 22.4351 35.6946 22.5037L35.0086 23.0411C34.9937 23.0556 34.9835 23.0743 34.9794 23.0947C34.9753 23.1151 34.9775 23.1363 34.9857 23.1554L35.2144 23.9786C35.2214 23.9995 35.2214 24.0221 35.2146 24.043C35.2078 24.0639 35.1945 24.0821 35.1766 24.0949C35.1587 24.1077 35.1371 24.1144 35.1151 24.1141C35.0931 24.1137 35.0718 24.1063 35.0543 24.093L34.334 23.6242C34.3171 23.6129 34.2972 23.6069 34.2768 23.6069C34.2565 23.6069 34.2366 23.6129 34.2197 23.6242L33.4993 24.093C33.4819 24.1063 33.4605 24.1137 33.4385 24.1141C33.4165 24.1144 33.395 24.1077 33.3771 24.0949C33.3592 24.0821 33.3458 24.0639 33.339 24.043C33.3322 24.0221 33.3323 23.9995 33.3393 23.9786L33.5679 23.144C33.5748 23.1237 33.5752 23.1018 33.5691 23.0813C33.5629 23.0608 33.5505 23.0428 33.5336 23.0296L32.8591 22.5037C32.8429 22.4907 32.831 22.4732 32.825 22.4534C32.819 22.4336 32.819 22.4125 32.8252 22.3927C32.8314 22.373 32.8434 22.3555 32.8596 22.3427C32.8758 22.3298 32.8956 22.3222 32.9162 22.3208L33.7852 22.275C33.8195 22.275 33.8652 22.2522 33.8767 22.2064L34.1854 21.4061V21.3946ZM34.1854 24.8247C34.194 24.8079 34.2071 24.7939 34.2233 24.784C34.2394 24.7742 34.2579 24.769 34.2768 24.769C34.2957 24.769 34.3143 24.7742 34.3304 24.784C34.3465 24.7939 34.3596 24.8079 34.3683 24.8247L34.677 25.6365C34.6885 25.6823 34.7342 25.7051 34.7685 25.7051L35.6374 25.7509C35.7289 25.7509 35.7632 25.8652 35.6946 25.9338L35.0086 26.4712C34.9937 26.4857 34.9835 26.5044 34.9794 26.5248C34.9753 26.5452 34.9775 26.5664 34.9857 26.5855L35.2144 27.4088C35.2214 27.4296 35.2214 27.4522 35.2146 27.4731C35.2078 27.494 35.1945 27.5122 35.1766 27.525C35.1587 27.5378 35.1371 27.5445 35.1151 27.5442C35.0931 27.5438 35.0718 27.5364 35.0543 27.5231L34.334 27.0543C34.3171 27.043 34.2972 27.037 34.2768 27.037C34.2565 27.037 34.2366 27.043 34.2197 27.0543L33.4993 27.5231C33.4819 27.5364 33.4605 27.5438 33.4385 27.5442C33.4165 27.5445 33.395 27.5378 33.3771 27.525C33.3592 27.5122 33.3458 27.494 33.339 27.4731C33.3322 27.4522 33.3323 27.4296 33.3393 27.4088L33.5679 26.5741C33.5748 26.5538 33.5752 26.5319 33.5691 26.5114C33.5629 26.4909 33.5505 26.4729 33.5336 26.4598L32.8591 25.9338C32.8429 25.9209 32.831 25.9033 32.825 25.8835C32.819 25.8637 32.819 25.8426 32.8252 25.8228C32.8314 25.8031 32.8434 25.7856 32.8596 25.7728C32.8758 25.76 32.8956 25.7523 32.9162 25.7509L33.7852 25.7051C33.8195 25.7051 33.8652 25.6823 33.8767 25.6365L34.1854 24.8362V24.8247ZM34.1854 28.2548C34.194 28.238 34.2071 28.224 34.2233 28.2141C34.2394 28.2043 34.2579 28.1991 34.2768 28.1991C34.2957 28.1991 34.3143 28.2043 34.3304 28.2141C34.3465 28.224 34.3596 28.238 34.3683 28.2548L34.677 29.0666C34.6885 29.1124 34.7342 29.1352 34.7685 29.1352L35.6374 29.181C35.7289 29.181 35.7632 29.2953 35.6946 29.3639L35.0086 29.9013C34.9937 29.9158 34.9835 29.9345 34.9794 29.9549C34.9753 29.9753 34.9775 29.9965 34.9857 30.0156L35.2144 30.8389C35.2214 30.8597 35.2214 30.8823 35.2146 30.9032C35.2078 30.9242 35.1945 30.9424 35.1766 30.9551C35.1587 30.9679 35.1371 30.9747 35.1151 30.9743C35.0931 30.9739 35.0718 30.9666 35.0543 30.9532L34.334 30.4844C34.3171 30.4731 34.2972 30.4671 34.2768 30.4671C34.2565 30.4671 34.2366 30.4731 34.2197 30.4844L33.4993 30.9532C33.4819 30.9666 33.4605 30.9739 33.4385 30.9743C33.4165 30.9747 33.395 30.9679 33.3771 30.9551C33.3592 30.9424 33.3458 30.9242 33.339 30.9032C33.3322 30.8823 33.3323 30.8597 33.3393 30.8389L33.5679 30.0042C33.5748 29.9839 33.5752 29.962 33.5691 29.9415C33.5629 29.9211 33.5505 29.903 33.5336 29.8899L32.8591 29.3639C32.8429 29.351 32.831 29.3334 32.825 29.3136C32.819 29.2938 32.819 29.2727 32.8252 29.2529C32.8314 29.2332 32.8434 29.2157 32.8596 29.2029C32.8758 29.1901 32.8956 29.1824 32.9162 29.181L33.7852 29.1352C33.8195 29.1352 33.8652 29.1124 33.8767 29.0666L34.1854 28.2663V28.2548ZM37.6155 21.3946C37.6241 21.3778 37.6372 21.3637 37.6534 21.3539C37.6695 21.3441 37.688 21.3389 37.7069 21.3389C37.7258 21.3389 37.7444 21.3441 37.7605 21.3539C37.7766 21.3637 37.7898 21.3778 37.7984 21.3946L38.1071 22.2064C38.1186 22.2522 38.1643 22.275 38.1986 22.275L39.0676 22.3208C39.159 22.3208 39.1933 22.4351 39.1247 22.5037L38.4387 23.0411C38.4238 23.0556 38.4136 23.0743 38.4095 23.0947C38.4054 23.1151 38.4076 23.1363 38.4158 23.1554L38.6445 23.9786C38.6515 23.9995 38.6516 24.0221 38.6447 24.043C38.6379 24.0639 38.6246 24.0821 38.6067 24.0949C38.5888 24.1077 38.5673 24.1144 38.5452 24.1141C38.5232 24.1137 38.5019 24.1063 38.4844 24.093L37.7641 23.6242C37.7472 23.6129 37.7273 23.6069 37.7069 23.6069C37.6866 23.6069 37.6667 23.6129 37.6498 23.6242L36.9295 24.093C36.912 24.1063 36.8906 24.1137 36.8686 24.1141C36.8466 24.1144 36.8251 24.1077 36.8072 24.0949C36.7893 24.0821 36.7759 24.0639 36.7691 24.043C36.7623 24.0221 36.7624 23.9995 36.7694 23.9786L36.9981 23.144C37.0049 23.1237 37.0053 23.1018 36.9992 23.0813C36.993 23.0608 36.9806 23.0428 36.9638 23.0296L36.2892 22.5037C36.273 22.4907 36.2611 22.4732 36.2551 22.4534C36.2491 22.4336 36.2491 22.4125 36.2553 22.3927C36.2615 22.373 36.2735 22.3555 36.2897 22.3427C36.306 22.3298 36.3257 22.3222 36.3463 22.3208L37.2153 22.275C37.2496 22.275 37.2953 22.2522 37.3068 22.2064L37.6155 21.4061V21.3946ZM37.6155 24.8247C37.6241 24.8079 37.6372 24.7939 37.6534 24.784C37.6695 24.7742 37.688 24.769 37.7069 24.769C37.7258 24.769 37.7444 24.7742 37.7605 24.784C37.7766 24.7939 37.7898 24.8079 37.7984 24.8247L38.1071 25.6365C38.1186 25.6823 38.1643 25.7051 38.1986 25.7051L39.0676 25.7509C39.159 25.7509 39.1933 25.8652 39.1247 25.9338L38.4387 26.4712C38.4238 26.4857 38.4136 26.5044 38.4095 26.5248C38.4054 26.5452 38.4076 26.5664 38.4158 26.5855L38.6445 27.4088C38.6515 27.4296 38.6516 27.4522 38.6447 27.4731C38.6379 27.494 38.6246 27.5122 38.6067 27.525C38.5888 27.5378 38.5673 27.5445 38.5452 27.5442C38.5232 27.5438 38.5019 27.5364 38.4844 27.5231L37.7641 27.0543C37.7472 27.043 37.7273 27.037 37.7069 27.037C37.6866 27.037 37.6667 27.043 37.6498 27.0543L36.9295 27.5231C36.912 27.5364 36.8906 27.5438 36.8686 27.5442C36.8466 27.5445 36.8251 27.5378 36.8072 27.525C36.7893 27.5122 36.7759 27.494 36.7691 27.4731C36.7623 27.4522 36.7624 27.4296 36.7694 27.4088L36.9981 26.5741C37.0049 26.5538 37.0053 26.5319 36.9992 26.5114C36.993 26.4909 36.9806 26.4729 36.9638 26.4598L36.2892 25.9338C36.273 25.9209 36.2611 25.9033 36.2551 25.8835C36.2491 25.8637 36.2491 25.8426 36.2553 25.8228C36.2615 25.8031 36.2735 25.7856 36.2897 25.7728C36.306 25.76 36.3257 25.7523 36.3463 25.7509L37.2153 25.7051C37.2496 25.7051 37.2953 25.6823 37.3068 25.6365L37.6155 24.8362V24.8247ZM37.6155 28.2548C37.6241 28.238 37.6372 28.224 37.6534 28.2141C37.6695 28.2043 37.688 28.1991 37.7069 28.1991C37.7258 28.1991 37.7444 28.2043 37.7605 28.2141C37.7766 28.224 37.7898 28.238 37.7984 28.2548L38.1071 29.0666C38.1186 29.1124 38.1643 29.1352 38.1986 29.1352L39.0676 29.181C39.159 29.181 39.1933 29.2953 39.1247 29.3639L38.4387 29.9013C38.4238 29.9158 38.4136 29.9345 38.4095 29.9549C38.4054 29.9753 38.4076 29.9965 38.4158 30.0156L38.6445 30.8389C38.6515 30.8597 38.6516 30.8823 38.6447 30.9032C38.6379 30.9242 38.6246 30.9424 38.6067 30.9551C38.5888 30.9679 38.5673 30.9747 38.5452 30.9743C38.5232 30.9739 38.5019 30.9666 38.4844 30.9532L37.7641 30.4844C37.7472 30.4731 37.7273 30.4671 37.7069 30.4671C37.6866 30.4671 37.6667 30.4731 37.6498 30.4844L36.9295 30.9532C36.912 30.9666 36.8906 30.9739 36.8686 30.9743C36.8466 30.9747 36.8251 30.9679 36.8072 30.9551C36.7893 30.9424 36.7759 30.9242 36.7691 30.9032C36.7623 30.8823 36.7624 30.8597 36.7694 30.8389L36.9981 30.0042C37.0049 29.9839 37.0053 29.962 36.9992 29.9415C36.993 29.9211 36.9806 29.903 36.9638 29.8899L36.2892 29.3639C36.273 29.351 36.2611 29.3334 36.2551 29.3136C36.2491 29.2938 36.2491 29.2727 36.2553 29.2529C36.2615 29.2332 36.2735 29.2157 36.2897 29.2029C36.306 29.1901 36.3257 29.1824 36.3463 29.181L37.2153 29.1352C37.2496 29.1352 37.2953 29.1124 37.3068 29.0666L37.6155 28.2663V28.2548ZM41.0456 21.3946C41.0542 21.3778 41.0674 21.3637 41.0835 21.3539C41.0996 21.3441 41.1182 21.3389 41.1371 21.3389C41.1559 21.3389 41.1745 21.3441 41.1906 21.3539C41.2067 21.3637 41.2199 21.3778 41.2285 21.3946L41.5372 22.2064C41.5487 22.2522 41.5944 22.275 41.6287 22.275L42.4977 22.3208C42.5891 22.3208 42.6234 22.4351 42.5548 22.5037L41.8688 23.0411C41.8539 23.0556 41.8437 23.0743 41.8396 23.0947C41.8355 23.1151 41.8377 23.1363 41.8459 23.1554L42.0746 23.9786C42.0816 23.9995 42.0817 24.0221 42.0749 24.043C42.0681 24.0639 42.0547 24.0821 42.0368 24.0949C42.0189 24.1077 41.9974 24.1144 41.9754 24.1141C41.9533 24.1137 41.932 24.1063 41.9145 24.093L41.1942 23.6242C41.1773 23.6129 41.1574 23.6069 41.1371 23.6069C41.1167 23.6069 41.0968 23.6129 41.0799 23.6242L40.3596 24.093C40.3421 24.1063 40.3208 24.1137 40.2987 24.1141C40.2767 24.1144 40.2552 24.1077 40.2373 24.0949C40.2194 24.0821 40.2061 24.0639 40.1992 24.043C40.1924 24.0221 40.1925 23.9995 40.1995 23.9786L40.4282 23.144C40.435 23.1237 40.4354 23.1018 40.4293 23.0813C40.4231 23.0608 40.4108 23.0428 40.3939 23.0296L39.7193 22.5037C39.7031 22.4907 39.6913 22.4732 39.6852 22.4534C39.6792 22.4336 39.6792 22.4125 39.6854 22.3927C39.6916 22.373 39.7036 22.3555 39.7198 22.3427C39.7361 22.3298 39.7558 22.3222 39.7764 22.3208L40.6454 22.275C40.6797 22.275 40.7254 22.2522 40.7369 22.2064L41.0456 21.4061V21.3946ZM41.0456 24.8247C41.0542 24.8079 41.0674 24.7939 41.0835 24.784C41.0996 24.7742 41.1182 24.769 41.1371 24.769C41.1559 24.769 41.1745 24.7742 41.1906 24.784C41.2067 24.7939 41.2199 24.8079 41.2285 24.8247L41.5372 25.6365C41.5487 25.6823 41.5944 25.7051 41.6287 25.7051L42.4977 25.7509C42.5891 25.7509 42.6234 25.8652 42.5548 25.9338L41.8688 26.4712C41.8539 26.4857 41.8437 26.5044 41.8396 26.5248C41.8355 26.5452 41.8377 26.5664 41.8459 26.5855L42.0746 27.4088C42.0816 27.4296 42.0817 27.4522 42.0749 27.4731C42.0681 27.494 42.0547 27.5122 42.0368 27.525C42.0189 27.5378 41.9974 27.5445 41.9754 27.5442C41.9533 27.5438 41.932 27.5364 41.9145 27.5231L41.1942 27.0543C41.1773 27.043 41.1574 27.037 41.1371 27.037C41.1167 27.037 41.0968 27.043 41.0799 27.0543L40.3596 27.5231C40.3421 27.5364 40.3208 27.5438 40.2987 27.5442C40.2767 27.5445 40.2552 27.5378 40.2373 27.525C40.2194 27.5122 40.2061 27.494 40.1992 27.4731C40.1924 27.4522 40.1925 27.4296 40.1995 27.4088L40.4282 26.5741C40.435 26.5538 40.4354 26.5319 40.4293 26.5114C40.4231 26.4909 40.4108 26.4729 40.3939 26.4598L39.7193 25.9338C39.7031 25.9209 39.6913 25.9033 39.6852 25.8835C39.6792 25.8637 39.6792 25.8426 39.6854 25.8228C39.6916 25.8031 39.7036 25.7856 39.7198 25.7728C39.7361 25.76 39.7558 25.7523 39.7764 25.7509L40.6454 25.7051C40.6797 25.7051 40.7254 25.6823 40.7369 25.6365L41.0456 24.8362V24.8247ZM41.0456 28.2548C41.0542 28.238 41.0674 28.224 41.0835 28.2141C41.0996 28.2043 41.1182 28.1991 41.1371 28.1991C41.1559 28.1991 41.1745 28.2043 41.1906 28.2141C41.2067 28.224 41.2199 28.238 41.2285 28.2548L41.5372 29.0666C41.5487 29.1124 41.5944 29.1352 41.6287 29.1352L42.4977 29.181C42.5891 29.181 42.6234 29.2953 42.5548 29.3639L41.8688 29.9013C41.8539 29.9158 41.8437 29.9345 41.8396 29.9549C41.8355 29.9753 41.8377 29.9965 41.8459 30.0156L42.0746 30.8389C42.0816 30.8597 42.0817 30.8823 42.0749 30.9032C42.0681 30.9242 42.0547 30.9424 42.0368 30.9551C42.0189 30.9679 41.9974 30.9747 41.9754 30.9743C41.9533 30.9739 41.932 30.9666 41.9145 30.9532L41.1942 30.4844C41.1773 30.4731 41.1574 30.4671 41.1371 30.4671C41.1167 30.4671 41.0968 30.4731 41.0799 30.4844L40.3596 30.9532C40.3421 30.9666 40.3208 30.9739 40.2987 30.9743C40.2767 30.9747 40.2552 30.9679 40.2373 30.9551C40.2194 30.9424 40.2061 30.9242 40.1992 30.9032C40.1924 30.8823 40.1925 30.8597 40.1995 30.8389L40.4282 30.0042C40.435 29.9839 40.4354 29.962 40.4293 29.9415C40.4231 29.9211 40.4108 29.903 40.3939 29.8899L39.7193 29.3639C39.7031 29.351 39.6913 29.3334 39.6852 29.3136C39.6792 29.2938 39.6792 29.2727 39.6854 29.2529C39.6916 29.2332 39.7036 29.2157 39.7198 29.2029C39.7361 29.1901 39.7558 29.1824 39.7764 29.181L40.6454 29.1352C40.6797 29.1352 40.7254 29.1124 40.7369 29.0666L41.0456 28.2663V28.2548Z" fill="#F8F9FD"/>
</g>
<g clip-path="url(#clip1_1_1685)">
<path d="M23 33.0969H42.4975V52.5944H23V33.0969Z" fill="#1565C0"/>
<path d="M32.6922 35.2629L33.093 36.4978H34.3929L33.3422 37.256L33.7429 38.4909L32.6922 37.7326L31.6524 38.4909L32.0423 37.2668L31.0025 36.5086H32.3023L32.6814 35.2629H32.6922ZM27.3738 37.4727L28.5328 38.0576L29.4427 37.1477L29.2477 38.4259L30.3959 39.0108L29.1177 39.2166L28.9119 40.4948L28.327 39.3466L27.0488 39.5415L27.9587 38.6317L27.3738 37.4727ZM25.1641 42.7911L26.3989 42.3903V41.0905L27.1571 42.1412L28.4028 41.7621L27.6446 42.802L28.4028 43.8527L27.1788 43.4519L26.4206 44.5026V43.2027L25.1641 42.7911ZM27.3738 48.1096L27.9587 46.9614L27.0488 46.0407L28.327 46.2465L28.9119 45.0875L29.1177 46.3765L30.3959 46.5715L29.2477 47.1672L29.4427 48.4454L28.5328 47.5247L27.3738 48.1096ZM32.6922 50.3193L32.2915 49.0845H30.9916L32.0423 48.3262L31.6632 47.0914L32.7031 47.8496L33.7538 47.0914L33.353 48.3262L34.4037 49.0845H33.1039L32.7031 50.3193H32.6922ZM38.0107 48.1096L36.8625 47.5247L35.9418 48.4454L36.1476 47.1672L34.9886 46.5715L36.2776 46.3765L36.4726 45.0875L37.0683 46.2465L38.3465 46.0407L37.4258 46.9614L38.0107 48.1096ZM40.2204 42.7911L38.9856 43.1919V44.4917L38.2274 43.441L36.9925 43.8418L37.7508 42.7911L36.9925 41.7513L38.2274 42.1412L38.9856 41.1013V42.4012L40.2204 42.7911ZM38.0107 37.4727L37.4258 38.6317L38.3465 39.5415L37.0683 39.3466L36.4726 40.4948L36.2776 39.2166L34.9886 39.0108L36.1476 38.4259L35.9418 37.1477L36.8625 38.0576L38.0107 37.4727Z" fill="#FDD835"/>
</g>
<rect x="22.0645" y="32.1614" width="21.3684" height="21.3684" rx="10.6842" stroke="#131313" stroke-width="1.87097"/>
<path d="M75.1709 30.9709V32.2971H68.9092V22.4329H75.1709V23.7522H70.4404V26.637H74.918V27.9084H70.4404V30.9709H75.1709ZM78.2744 22.4329V28.7014C78.2744 29.4215 78.4909 30.0025 78.9238 30.4446C79.3613 30.8821 79.9652 31.1008 80.7354 31.1008C81.5055 31.1008 82.1094 30.8821 82.5469 30.4446C82.9844 30.0025 83.2031 29.4215 83.2031 28.7014V22.4329H84.7275V28.8313C84.7275 29.9114 84.3675 30.7864 83.6475 31.4563C82.9274 32.1262 81.9567 32.4612 80.7354 32.4612C79.514 32.4612 78.5433 32.1262 77.8232 31.4563C77.1032 30.7864 76.7432 29.9114 76.7432 28.8313V22.4329H78.2744ZM88.0771 23.718V27.2659H90.2236C90.8161 27.2659 91.2741 27.1109 91.5977 26.801C91.9212 26.4911 92.083 26.0536 92.083 25.4885C92.083 24.9371 91.9144 24.5042 91.5771 24.1897C91.2399 23.8752 90.7751 23.718 90.1826 23.718H88.0771ZM88.0771 28.5032V32.2971H86.5459V22.4329H90.3672C91.3789 22.4329 92.181 22.7063 92.7734 23.2532C93.3659 23.7955 93.6621 24.5269 93.6621 25.4475C93.6621 26.1174 93.4912 26.7053 93.1494 27.2112C92.8122 27.7125 92.3451 28.0634 91.748 28.2639L93.9561 32.2971H92.1924L90.1826 28.5032H88.0771ZM96.6768 22.4329V28.7014C96.6768 29.4215 96.8932 30.0025 97.3262 30.4446C97.7637 30.8821 98.3675 31.1008 99.1377 31.1008C99.9079 31.1008 100.512 30.8821 100.949 30.4446C101.387 30.0025 101.605 29.4215 101.605 28.7014V22.4329H103.13V28.8313C103.13 29.9114 102.77 30.7864 102.05 31.4563C101.33 32.1262 100.359 32.4612 99.1377 32.4612C97.9163 32.4612 96.9456 32.1262 96.2256 31.4563C95.5055 30.7864 95.1455 29.9114 95.1455 28.8313V22.4329H96.6768ZM104.511 29.5491H106.021C106.076 30.0367 106.32 30.4286 106.753 30.7249C107.186 31.0211 107.728 31.1692 108.38 31.1692C109 31.1692 109.51 31.0256 109.911 30.7385C110.317 30.4514 110.52 30.0868 110.52 29.6448C110.52 29.262 110.376 28.9498 110.089 28.7083C109.802 28.4622 109.339 28.2616 108.701 28.1067L107.423 27.7991C106.516 27.5803 105.846 27.2545 105.413 26.8215C104.985 26.3886 104.771 25.828 104.771 25.1399C104.771 24.2922 105.103 23.6018 105.769 23.0686C106.438 22.5354 107.302 22.2688 108.359 22.2688C109.398 22.2688 110.246 22.5354 110.902 23.0686C111.559 23.5972 111.898 24.2877 111.921 25.1399H110.431C110.385 24.6523 110.173 24.2672 109.795 23.9846C109.421 23.7021 108.936 23.5608 108.339 23.5608C107.746 23.5608 107.263 23.6975 106.89 23.9709C106.521 24.2444 106.336 24.5999 106.336 25.0374C106.336 25.3837 106.475 25.6685 106.753 25.8918C107.031 26.1106 107.489 26.2997 108.127 26.4592L109.214 26.7258C110.226 26.9628 110.955 27.2978 111.401 27.7307C111.853 28.1591 112.078 28.7356 112.078 29.4602C112.078 30.3808 111.736 31.1122 111.053 31.6545C110.369 32.1923 109.442 32.4612 108.271 32.4612C107.172 32.4612 106.281 32.1991 105.598 31.675C104.919 31.1464 104.556 30.4377 104.511 29.5491ZM113.452 22.4329H116.932C118.399 22.4329 119.543 22.8635 120.363 23.7249C121.188 24.5862 121.601 25.7939 121.601 27.3479C121.601 28.9065 121.19 30.121 120.37 30.9915C119.55 31.8619 118.404 32.2971 116.932 32.2971H113.452V22.4329ZM114.983 23.7522V30.9709H116.788C117.836 30.9709 118.638 30.6611 119.194 30.0413C119.755 29.4215 120.035 28.5282 120.035 27.3616C120.035 26.1995 119.755 25.3085 119.194 24.6887C118.634 24.0644 117.832 23.7522 116.788 23.7522H114.983Z" fill="white"/>
<path d="M74.0586 49.3479V50.2971H68.8203V41.842H74.0586V42.7913H69.875V45.5042H73.8418V46.4417H69.875V49.3479H74.0586ZM76.5078 41.842V47.262C76.5078 47.9143 76.7109 48.4456 77.1172 48.8557C77.5273 49.262 78.0918 49.4651 78.8105 49.4651C79.5293 49.4651 80.0918 49.262 80.498 48.8557C80.9082 48.4456 81.1133 47.9143 81.1133 47.262V41.842H82.168V47.3323C82.168 48.2502 81.8652 48.9983 81.2598 49.5764C80.6582 50.1506 79.8418 50.4377 78.8105 50.4377C77.7793 50.4377 76.9609 50.1506 76.3555 49.5764C75.7539 48.9983 75.4531 48.2502 75.4531 47.3323V41.842H76.5078ZM84.8633 42.7795V46.0198H86.8848C87.4277 46.0198 87.8457 45.8792 88.1387 45.5979C88.4355 45.3167 88.584 44.9163 88.584 44.3967C88.584 43.8889 88.4297 43.4924 88.1211 43.2073C87.8125 42.9221 87.3848 42.7795 86.8379 42.7795H84.8633ZM84.8633 46.9514V50.2971H83.8086V41.842H86.9785C87.7949 41.842 88.4473 42.0725 88.9355 42.5334C89.4277 42.9905 89.6738 43.5999 89.6738 44.3616C89.6738 44.9514 89.5234 45.4612 89.2227 45.8909C88.9219 46.3206 88.5059 46.6194 87.9746 46.7874L89.9316 50.2971H88.6953L86.8848 46.9514H84.8633ZM92.0586 41.842V47.262C92.0586 47.9143 92.2617 48.4456 92.668 48.8557C93.0781 49.262 93.6426 49.4651 94.3613 49.4651C95.0801 49.4651 95.6426 49.262 96.0488 48.8557C96.459 48.4456 96.6641 47.9143 96.6641 47.262V41.842H97.7188V47.3323C97.7188 48.2502 97.416 48.9983 96.8105 49.5764C96.209 50.1506 95.3926 50.4377 94.3613 50.4377C93.3301 50.4377 92.5117 50.1506 91.9062 49.5764C91.3047 48.9983 91.0039 48.2502 91.0039 47.3323V41.842H92.0586ZM98.9551 47.9709H100.016C100.066 48.428 100.289 48.7952 100.684 49.0725C101.082 49.3499 101.584 49.4885 102.189 49.4885C102.76 49.4885 103.23 49.3538 103.602 49.0842C103.977 48.8108 104.164 48.467 104.164 48.053C104.164 47.6975 104.033 47.4045 103.771 47.1741C103.514 46.9436 103.1 46.7542 102.529 46.6057L101.445 46.3245C100.664 46.1252 100.094 45.8479 99.7344 45.4924C99.375 45.1331 99.1953 44.6663 99.1953 44.092C99.1953 43.3889 99.4727 42.8147 100.027 42.3694C100.586 41.9241 101.305 41.7014 102.184 41.7014C103.023 41.7014 103.719 41.928 104.27 42.3811C104.82 42.8303 105.107 43.4084 105.131 44.1155H104.076C104.029 43.6624 103.834 43.3049 103.49 43.0432C103.146 42.7815 102.699 42.6506 102.148 42.6506C101.602 42.6506 101.154 42.7795 100.807 43.0374C100.463 43.2952 100.291 43.6311 100.291 44.0452C100.291 44.3655 100.416 44.6292 100.666 44.8362C100.92 45.0393 101.334 45.2151 101.908 45.3635L102.793 45.5979C103.668 45.8167 104.297 46.1077 104.68 46.4709C105.062 46.8342 105.254 47.3186 105.254 47.9241C105.254 48.6975 104.969 49.3108 104.398 49.7639C103.832 50.2131 103.062 50.4377 102.09 50.4377C101.191 50.4377 100.457 50.2131 99.8867 49.7639C99.3164 49.3147 99.0059 48.717 98.9551 47.9709ZM106.484 41.842H109.326C110.58 41.842 111.559 42.2151 112.262 42.9612C112.965 43.7034 113.316 44.7385 113.316 46.0667C113.316 47.3987 112.965 48.4377 112.262 49.1838C111.562 49.926 110.584 50.2971 109.326 50.2971H106.484V41.842ZM107.539 42.7913V49.3479H109.256C110.213 49.3479 110.949 49.0667 111.465 48.5042C111.98 47.9377 112.238 47.1292 112.238 46.0784C112.238 45.0198 111.98 44.2073 111.465 43.6409C110.953 43.0745 110.217 42.7913 109.256 42.7913H107.539ZM117.143 52.0959H116.27L119.264 41.842H120.137L117.143 52.0959ZM124.473 41.842V47.262C124.473 47.9143 124.676 48.4456 125.082 48.8557C125.492 49.262 126.057 49.4651 126.775 49.4651C127.494 49.4651 128.057 49.262 128.463 48.8557C128.873 48.4456 129.078 47.9143 129.078 47.262V41.842H130.133V47.3323C130.133 48.2502 129.83 48.9983 129.225 49.5764C128.623 50.1506 127.807 50.4377 126.775 50.4377C125.744 50.4377 124.926 50.1506 124.32 49.5764C123.719 48.9983 123.418 48.2502 123.418 47.3323V41.842H124.473ZM132.951 50.1624C132.822 50.2913 132.664 50.3557 132.477 50.3557C132.289 50.3557 132.131 50.2913 132.002 50.1624C131.873 50.0334 131.809 49.8752 131.809 49.6877C131.809 49.5002 131.873 49.342 132.002 49.2131C132.131 49.0842 132.289 49.0198 132.477 49.0198C132.664 49.0198 132.822 49.0842 132.951 49.2131C133.08 49.342 133.145 49.5002 133.145 49.6877C133.145 49.8752 133.08 50.0334 132.951 50.1624ZM134.416 47.9709H135.477C135.527 48.428 135.75 48.7952 136.145 49.0725C136.543 49.3499 137.045 49.4885 137.65 49.4885C138.221 49.4885 138.691 49.3538 139.062 49.0842C139.438 48.8108 139.625 48.467 139.625 48.053C139.625 47.6975 139.494 47.4045 139.232 47.1741C138.975 46.9436 138.561 46.7542 137.99 46.6057L136.906 46.3245C136.125 46.1252 135.555 45.8479 135.195 45.4924C134.836 45.1331 134.656 44.6663 134.656 44.092C134.656 43.3889 134.934 42.8147 135.488 42.3694C136.047 41.9241 136.766 41.7014 137.645 41.7014C138.484 41.7014 139.18 41.928 139.73 42.3811C140.281 42.8303 140.568 43.4084 140.592 44.1155H139.537C139.49 43.6624 139.295 43.3049 138.951 43.0432C138.607 42.7815 138.16 42.6506 137.609 42.6506C137.062 42.6506 136.615 42.7795 136.268 43.0374C135.924 43.2952 135.752 43.6311 135.752 44.0452C135.752 44.3655 135.877 44.6292 136.127 44.8362C136.381 45.0393 136.795 45.2151 137.369 45.3635L138.254 45.5979C139.129 45.8167 139.758 46.1077 140.141 46.4709C140.523 46.8342 140.715 47.3186 140.715 47.9241C140.715 48.6975 140.43 49.3108 139.859 49.7639C139.293 50.2131 138.523 50.4377 137.551 50.4377C136.652 50.4377 135.918 50.2131 135.348 49.7639C134.777 49.3147 134.467 48.717 134.416 47.9709ZM143.123 50.1624C142.994 50.2913 142.836 50.3557 142.648 50.3557C142.461 50.3557 142.303 50.2913 142.174 50.1624C142.045 50.0334 141.98 49.8752 141.98 49.6877C141.98 49.5002 142.045 49.342 142.174 49.2131C142.303 49.0842 142.461 49.0198 142.648 49.0198C142.836 49.0198 142.994 49.0842 143.123 49.2131C143.252 49.342 143.316 49.5002 143.316 49.6877C143.316 49.8752 143.252 50.0334 143.123 50.1624ZM146.867 41.842H149.709C150.963 41.842 151.941 42.2151 152.645 42.9612C153.348 43.7034 153.699 44.7385 153.699 46.0667C153.699 47.3987 153.348 48.4377 152.645 49.1838C151.945 49.926 150.967 50.2971 149.709 50.2971H146.867V41.842ZM147.922 42.7913V49.3479H149.639C150.596 49.3479 151.332 49.0667 151.848 48.5042C152.363 47.9377 152.621 47.1292 152.621 46.0784C152.621 45.0198 152.363 44.2073 151.848 43.6409C151.336 43.0745 150.6 42.7913 149.639 42.7913H147.922ZM155.732 42.8792C156.432 42.094 157.381 41.7014 158.58 41.7014C159.779 41.7014 160.729 42.094 161.428 42.8792C162.127 43.6643 162.477 44.7288 162.477 46.0725C162.477 47.4163 162.127 48.4807 161.428 49.2659C160.729 50.0471 159.779 50.4377 158.58 50.4377C157.381 50.4377 156.432 50.0471 155.732 49.2659C155.033 48.4807 154.684 47.4163 154.684 46.0725C154.684 44.7288 155.033 43.6643 155.732 42.8792ZM160.631 43.594C160.127 42.9807 159.443 42.6741 158.58 42.6741C157.717 42.6741 157.031 42.9807 156.523 43.594C156.02 44.2034 155.768 45.0295 155.768 46.0725C155.768 47.1116 156.02 47.9377 156.523 48.551C157.031 49.1604 157.717 49.4651 158.58 49.4651C159.443 49.4651 160.127 49.1604 160.631 48.551C161.139 47.9377 161.393 47.1116 161.393 46.0725C161.393 45.0295 161.139 44.2034 160.631 43.594ZM168.922 49.3479V50.2971H163.789V41.842H164.844V49.3479H168.922ZM175.215 49.3479V50.2971H170.082V41.842H171.137V49.3479H175.215ZM181.871 50.2971L181.021 47.8772H177.658L176.809 50.2971H175.701L178.818 41.842H179.861L182.979 50.2971H181.871ZM179.322 43.1252L177.969 46.9807H180.711L179.357 43.1252H179.322ZM185 42.7795V46.0198H187.021C187.564 46.0198 187.982 45.8792 188.275 45.5979C188.572 45.3167 188.721 44.9163 188.721 44.3967C188.721 43.8889 188.566 43.4924 188.258 43.2073C187.949 42.9221 187.521 42.7795 186.975 42.7795H185ZM185 46.9514V50.2971H183.945V41.842H187.115C187.932 41.842 188.584 42.0725 189.072 42.5334C189.564 42.9905 189.811 43.5999 189.811 44.3616C189.811 44.9514 189.66 45.4612 189.359 45.8909C189.059 46.3206 188.643 46.6194 188.111 46.7874L190.068 50.2971H188.832L187.021 46.9514H185Z" fill="#767E95"/>
<path d="M31.5996 96.9634C29.6309 96.9634 27.9948 96.4211 26.6914 95.3364C25.388 94.2427 24.6908 92.8345 24.5996 91.1118H27.5254C27.6348 92.0871 28.0677 92.88 28.8242 93.4907C29.5898 94.1014 30.5241 94.4067 31.627 94.4067C32.8665 94.4067 33.8783 94.0148 34.6621 93.231C35.446 92.4471 35.8379 91.4354 35.8379 90.1958C35.8379 88.9562 35.446 87.9399 34.6621 87.147C33.8874 86.3449 32.8848 85.9438 31.6543 85.9438C30.7975 85.9438 30.0182 86.1307 29.3164 86.5044C28.6237 86.869 28.0859 87.3748 27.7031 88.022H24.9004L25.9395 76.8657H37.6836V79.4497H28.4004L27.8535 85.5063H27.9219C28.3594 84.8774 28.9609 84.3898 29.7266 84.0435C30.5013 83.688 31.3672 83.5103 32.3242 83.5103C34.2201 83.5103 35.7786 84.1346 37 85.3833C38.2214 86.6229 38.832 88.1997 38.832 90.1138C38.832 92.1372 38.1576 93.7869 36.8086 95.063C35.4688 96.3299 33.7324 96.9634 31.5996 96.9634ZM43.2891 100.655H40.9375L42.168 93.436H45.1484L43.2891 100.655ZM55.7441 96.9634C53.5475 96.9634 51.752 96.4302 50.3574 95.3638C48.972 94.2974 48.2793 92.9302 48.2793 91.2622C48.2793 90.0135 48.6803 88.9243 49.4824 87.9946C50.2936 87.0649 51.3555 86.4634 52.668 86.1899V86.1216C51.5742 85.8208 50.6992 85.2739 50.043 84.481C49.3958 83.6789 49.0723 82.7492 49.0723 81.6919C49.0723 80.1971 49.7012 78.9575 50.959 77.9731C52.2168 76.9888 53.8118 76.4966 55.7441 76.4966C57.6855 76.4966 59.2806 76.9888 60.5293 77.9731C61.778 78.9484 62.4023 80.1925 62.4023 81.7056C62.4023 82.7446 62.0788 83.6606 61.4316 84.4536C60.7845 85.2466 59.9141 85.8026 58.8203 86.1216V86.1899C60.1328 86.4634 61.1901 87.0649 61.9922 87.9946C62.8034 88.9243 63.209 90.0135 63.209 91.2622C63.209 92.9393 62.5117 94.311 61.1172 95.3774C59.7227 96.4347 57.9316 96.9634 55.7441 96.9634ZM52.6406 93.5317C53.4518 94.1789 54.4863 94.5024 55.7441 94.5024C57.002 94.5024 58.0319 94.1789 58.834 93.5317C59.6361 92.8755 60.0371 92.0461 60.0371 91.0435C60.0371 90.0226 59.6361 89.1886 58.834 88.5415C58.0319 87.8853 57.002 87.5571 55.7441 87.5571C54.4863 87.5571 53.4518 87.8853 52.6406 88.5415C51.8385 89.1978 51.4375 90.0317 51.4375 91.0435C51.4375 92.0461 51.8385 92.8755 52.6406 93.5317ZM55.7441 85.0962C56.8014 85.0962 57.6719 84.8091 58.3555 84.2349C59.0391 83.6515 59.3809 82.9132 59.3809 82.02C59.3809 81.1177 59.0391 80.3794 58.3555 79.8052C57.681 79.2218 56.8105 78.9302 55.7441 78.9302C54.6777 78.9302 53.8027 79.2218 53.1191 79.8052C52.4447 80.3794 52.1074 81.1177 52.1074 82.02C52.1074 82.9224 52.4447 83.6606 53.1191 84.2349C53.8027 84.8091 54.6777 85.0962 55.7441 85.0962ZM75.3086 96.5942V92.6978H65.4375V90.0181C67.0234 87.0285 69.8171 82.6444 73.8184 76.8657H78.248V90.1274H80.9551V92.6978H78.248V96.5942H75.3086ZM68.2949 90.1001V90.1685H75.3359V79.231H75.2812C72.0182 83.9432 69.6895 87.5662 68.2949 90.1001ZM87.6133 87.6665V85.2603H89.9922C91.0495 85.2603 91.9108 84.9595 92.5762 84.3579C93.2507 83.7563 93.5879 82.9907 93.5879 82.061C93.5879 81.1222 93.2734 80.3794 92.6445 79.8325C92.0247 79.2856 91.1406 79.0122 89.9922 79.0122C88.9258 79.0122 88.0599 79.2993 87.3945 79.8735C86.7292 80.4386 86.3509 81.2088 86.2598 82.1841H83.375C83.4935 80.4523 84.1589 79.0715 85.3711 78.0415C86.5924 77.0116 88.1784 76.4966 90.1289 76.4966C92.0065 76.4966 93.5514 76.9797 94.7637 77.9458C95.9759 78.9028 96.582 80.1379 96.582 81.6509C96.582 82.8722 96.2129 83.9022 95.4746 84.7407C94.7363 85.5701 93.752 86.0942 92.5215 86.313V86.3677C94.0163 86.4679 95.2012 86.9465 96.0762 87.8032C96.9603 88.66 97.4023 89.7765 97.4023 91.1528C97.4023 92.8573 96.7142 94.2518 95.3379 95.3364C93.9616 96.4211 92.2344 96.9634 90.1562 96.9634C88.0508 96.9634 86.3509 96.4393 85.0566 95.3911C83.7715 94.3338 83.0788 92.9438 82.9785 91.2212H85.918C86.0182 92.1782 86.4421 92.9484 87.1895 93.5317C87.946 94.1151 88.9349 94.4067 90.1562 94.4067C91.3594 94.4067 92.3483 94.1014 93.123 93.4907C93.8978 92.8709 94.2852 92.078 94.2852 91.1118C94.2852 90.0454 93.9069 89.2069 93.1504 88.5962C92.403 87.9764 91.3776 87.6665 90.0742 87.6665H87.6133ZM103.336 96.2251C102.99 96.5715 102.566 96.7446 102.064 96.7446C101.563 96.7446 101.139 96.5715 100.793 96.2251C100.447 95.8787 100.273 95.4549 100.273 94.9536C100.273 94.4523 100.447 94.0285 100.793 93.6821C101.139 93.3358 101.563 93.1626 102.064 93.1626C102.566 93.1626 102.99 93.3358 103.336 93.6821C103.682 94.0285 103.855 94.4523 103.855 94.9536C103.855 95.4549 103.682 95.8787 103.336 96.2251ZM107.465 96.5942L116.229 79.5181V79.4497H105.824V76.8657H119.25V79.5181L110.678 96.5942H107.465Z" fill="white"/>
<path d="M138.203 92.3472V95.4302H136.85V92.3472H133.979V91.0142H136.85V87.9927H138.203V91.0142H141.074V92.3472H138.203ZM144.745 95.5942V87.2476H144.711L142.134 89.0796V87.5757L144.731 85.73H146.242V95.5942H144.745ZM149.195 95.5942L153.577 87.0562V87.022H148.375V85.73H155.088V87.0562L150.802 95.5942H149.195ZM156.66 95.4097C156.487 95.5828 156.275 95.6694 156.024 95.6694C155.774 95.6694 155.562 95.5828 155.389 95.4097C155.215 95.2365 155.129 95.0246 155.129 94.7739C155.129 94.5233 155.215 94.3114 155.389 94.1382C155.562 93.965 155.774 93.8784 156.024 93.8784C156.275 93.8784 156.487 93.965 156.66 94.1382C156.833 94.3114 156.92 94.5233 156.92 94.7739C156.92 95.0246 156.833 95.2365 156.66 95.4097ZM163.373 95.5942V93.646H158.438V92.3062C159.23 90.8114 160.627 88.6193 162.628 85.73H164.843V92.3608H166.196V93.646H164.843V95.5942H163.373ZM159.866 92.3472V92.3813H163.387V86.9126H163.359C161.728 89.2687 160.563 91.0802 159.866 92.3472ZM173.729 94.3979C173.069 95.3185 172.15 95.7788 170.975 95.7788C169.799 95.7788 168.876 95.3208 168.206 94.4048C167.541 93.4842 167.208 92.2332 167.208 90.6519C167.208 89.0841 167.543 87.8423 168.213 86.9263C168.883 86.0057 169.803 85.5454 170.975 85.5454C172.146 85.5454 173.064 86.0034 173.729 86.9194C174.395 87.8309 174.728 89.0728 174.728 90.645C174.728 92.2264 174.395 93.4774 173.729 94.3979ZM169.341 93.4751C169.728 94.1541 170.273 94.4937 170.975 94.4937C171.676 94.4937 172.219 94.1541 172.602 93.4751C172.989 92.7915 173.183 91.8504 173.183 90.6519C173.183 89.467 172.987 88.535 172.595 87.856C172.207 87.1724 171.667 86.8306 170.975 86.8306C170.282 86.8306 169.74 87.1724 169.348 87.856C168.956 88.5396 168.76 89.4715 168.76 90.6519C168.76 91.8504 168.953 92.7915 169.341 93.4751ZM179.355 86.2632C179.743 86.7144 179.937 87.3182 179.937 88.0747C179.937 88.8312 179.743 89.4351 179.355 89.8862C178.968 90.3374 178.451 90.563 177.804 90.563C177.152 90.563 176.632 90.3374 176.245 89.8862C175.858 89.4351 175.664 88.8312 175.664 88.0747C175.664 87.3182 175.858 86.7144 176.245 86.2632C176.632 85.812 177.152 85.5864 177.804 85.5864C178.451 85.5864 178.968 85.812 179.355 86.2632ZM177.804 89.5991C178.073 89.5991 178.287 89.4624 178.446 89.189C178.606 88.9155 178.686 88.5418 178.686 88.0679C178.686 87.5985 178.606 87.2271 178.446 86.9536C178.287 86.6802 178.073 86.5435 177.804 86.5435C177.53 86.5435 177.314 86.6802 177.154 86.9536C176.995 87.2271 176.915 87.5985 176.915 88.0679C176.915 88.5418 176.995 88.9155 177.154 89.189C177.314 89.4624 177.53 89.5991 177.804 89.5991ZM177.742 95.5942H176.389L180.203 90.3784L183.601 85.73H184.947L181.235 90.8159L177.742 95.5942ZM185.672 93.2222C185.672 93.9787 185.478 94.5825 185.091 95.0337C184.708 95.4849 184.191 95.7104 183.539 95.7104C182.887 95.7104 182.368 95.4849 181.98 95.0337C181.598 94.5825 181.406 93.9787 181.406 93.2222C181.406 92.4611 181.598 91.855 181.98 91.4038C182.368 90.9526 182.887 90.7271 183.539 90.7271C184.191 90.7271 184.708 90.9526 185.091 91.4038C185.478 91.855 185.672 92.4611 185.672 93.2222ZM182.89 94.3364C183.049 94.6053 183.266 94.7397 183.539 94.7397C183.812 94.7397 184.027 94.6053 184.182 94.3364C184.341 94.063 184.421 93.6893 184.421 93.2153C184.421 92.7414 184.341 92.37 184.182 92.1011C184.027 91.8276 183.812 91.6909 183.539 91.6909C183.266 91.6909 183.049 91.8276 182.89 92.1011C182.735 92.37 182.657 92.7414 182.657 93.2153C182.657 93.6893 182.735 94.063 182.89 94.3364Z" fill="#27AF1B"/>
<path d="M191.19 91.7183C191.19 90.5197 191.352 89.4305 191.676 88.4507C191.999 87.4709 192.496 86.564 193.166 85.73H194.465C193.968 86.3088 193.551 87.1701 193.214 88.314C192.877 89.4578 192.708 90.5903 192.708 91.7114C192.708 92.8325 192.877 93.9673 193.214 95.1157C193.556 96.2596 193.973 97.1209 194.465 97.6997H193.166C191.849 96.0636 191.19 94.0698 191.19 91.7183ZM201.841 94.3979C201.18 95.3185 200.262 95.7788 199.086 95.7788C197.91 95.7788 196.987 95.3208 196.317 94.4048C195.652 93.4842 195.319 92.2332 195.319 90.6519C195.319 89.0841 195.654 87.8423 196.324 86.9263C196.994 86.0057 197.915 85.5454 199.086 85.5454C200.257 85.5454 201.175 86.0034 201.841 86.9194C202.506 87.8309 202.839 89.0728 202.839 90.645C202.839 92.2264 202.506 93.4774 201.841 94.3979ZM197.452 93.4751C197.84 94.1541 198.384 94.4937 199.086 94.4937C199.788 94.4937 200.33 94.1541 200.713 93.4751C201.1 92.7915 201.294 91.8504 201.294 90.6519C201.294 89.467 201.098 88.535 200.706 87.856C200.319 87.1724 199.779 86.8306 199.086 86.8306C198.393 86.8306 197.851 87.1724 197.459 87.856C197.067 88.5396 196.871 89.4715 196.871 90.6519C196.871 91.8504 197.065 92.7915 197.452 93.4751ZM205.621 95.4097C205.448 95.5828 205.236 95.6694 204.985 95.6694C204.735 95.6694 204.523 95.5828 204.35 95.4097C204.176 95.2365 204.09 95.0246 204.09 94.7739C204.09 94.5233 204.176 94.3114 204.35 94.1382C204.523 93.965 204.735 93.8784 204.985 93.8784C205.236 93.8784 205.448 93.965 205.621 94.1382C205.794 94.3114 205.881 94.5233 205.881 94.7739C205.881 95.0246 205.794 95.2365 205.621 95.4097ZM213.858 94.3979C213.198 95.3185 212.279 95.7788 211.104 95.7788C209.928 95.7788 209.005 95.3208 208.335 94.4048C207.67 93.4842 207.337 92.2332 207.337 90.6519C207.337 89.0841 207.672 87.8423 208.342 86.9263C209.012 86.0057 209.932 85.5454 211.104 85.5454C212.275 85.5454 213.193 86.0034 213.858 86.9194C214.524 87.8309 214.856 89.0728 214.856 90.645C214.856 92.2264 214.524 93.4774 213.858 94.3979ZM209.47 93.4751C209.857 94.1541 210.402 94.4937 211.104 94.4937C211.805 94.4937 212.348 94.1541 212.73 93.4751C213.118 92.7915 213.312 91.8504 213.312 90.6519C213.312 89.467 213.116 88.535 212.724 87.856C212.336 87.1724 211.796 86.8306 211.104 86.8306C210.411 86.8306 209.868 87.1724 209.477 87.856C209.085 88.5396 208.889 89.4715 208.889 90.6519C208.889 91.8504 209.082 92.7915 209.47 93.4751ZM222.581 94.3979C221.92 95.3185 221.002 95.7788 219.826 95.7788C218.65 95.7788 217.728 95.3208 217.058 94.4048C216.392 93.4842 216.06 92.2332 216.06 90.6519C216.06 89.0841 216.395 87.8423 217.064 86.9263C217.734 86.0057 218.655 85.5454 219.826 85.5454C220.997 85.5454 221.916 86.0034 222.581 86.9194C223.246 87.8309 223.579 89.0728 223.579 90.645C223.579 92.2264 223.246 93.4774 222.581 94.3979ZM218.192 93.4751C218.58 94.1541 219.124 94.4937 219.826 94.4937C220.528 94.4937 221.07 94.1541 221.453 93.4751C221.84 92.7915 222.034 91.8504 222.034 90.6519C222.034 89.467 221.838 88.535 221.446 87.856C221.059 87.1724 220.519 86.8306 219.826 86.8306C219.133 86.8306 218.591 87.1724 218.199 87.856C217.807 88.5396 217.611 89.4715 217.611 90.6519C217.611 91.8504 217.805 92.7915 218.192 93.4751ZM227.722 91.7183C227.722 92.4338 227.667 93.1014 227.558 93.7212C227.453 94.341 227.3 94.8947 227.1 95.3823C226.904 95.8654 226.699 96.2847 226.484 96.6401C226.27 97.0002 226.024 97.3534 225.746 97.6997H224.447C224.634 97.4855 224.823 97.1961 225.015 96.8315C225.206 96.467 225.393 96.034 225.575 95.5327C225.762 95.0269 225.912 94.439 226.026 93.769C226.145 93.0946 226.204 92.4087 226.204 91.7114C226.204 91.0142 226.145 90.3306 226.026 89.6606C225.912 88.9862 225.762 88.3983 225.575 87.897C225.393 87.3911 225.204 86.9582 225.008 86.5981C224.816 86.2336 224.63 85.9442 224.447 85.73H225.746C226.024 86.0718 226.27 86.4227 226.484 86.7827C226.699 87.1382 226.904 87.5597 227.1 88.0474C227.3 88.5304 227.453 89.0841 227.558 89.7085C227.667 90.3283 227.722 90.9982 227.722 91.7183Z" fill="#27AF1B"/>
<rect x="625" y="118" width="102" height="216" fill="url(#paint1_linear_1_1685)"/>
<rect width="102" height="216" transform="matrix(-1 0 0 1 102 118)" fill="url(#paint2_linear_1_1685)"/>
<defs>
<linearGradient id="paint0_linear_1_1685" x1="362.708" y1="93.7256" x2="362.708" y2="259.726" gradientUnits="userSpaceOnUse">
<stop stop-color="#3F71F6" stop-opacity="0.1"/>
<stop offset="1" stop-color="#3F71F6" stop-opacity="0"/>
</linearGradient>
<linearGradient id="paint1_linear_1_1685" x1="727" y1="226" x2="654.709" y2="226" gradientUnits="userSpaceOnUse">
<stop stop-color="#0B0D1D"/>
<stop offset="0.5" stop-color="#0B0D1D" stop-opacity="0.38"/>
<stop offset="1" stop-color="#0B0D1D" stop-opacity="0"/>
</linearGradient>
<linearGradient id="paint2_linear_1_1685" x1="102" y1="108" x2="29.7088" y2="108" gradientUnits="userSpaceOnUse">
<stop stop-color="#0B0D1D"/>
<stop offset="0.5" stop-color="#0B0D1D" stop-opacity="0.38"/>
<stop offset="1" stop-color="#0B0D1D" stop-opacity="0"/>
</linearGradient>
<clipPath id="clip0_1_1685">
<rect x="31.418" y="20" width="20.5806" height="20.5806" rx="10.2903" fill="white"/>
</clipPath>
<clipPath id="clip1_1_1685">
<rect x="23" y="33.0969" width="19.4975" height="19.4975" rx="9.74873" fill="white"/>
</clipPath>
</defs>
</svg>
