<svg width="18" height="14" viewBox="0 0 18 14" fill="none" xmlns="http://www.w3.org/2000/svg">
<path d="M17.6376 3.33596C17.6376 1.79768 16.5061 0.56022 15.1079 0.56022C13.2141 0.471684 11.2828 0.4375 9.30897 0.4375H8.69366C6.72466 0.4375 4.78984 0.471684 2.89605 0.560562C1.50134 0.560562 0.369852 1.80486 0.369852 3.34314C0.284392 4.55975 0.248157 5.7767 0.250208 6.99365C0.246789 8.21059 0.285531 9.42868 0.366433 10.6479C0.366433 12.1862 1.49792 13.4339 2.89263 13.4339C4.88214 13.5262 6.92292 13.5672 8.99789 13.5638C11.0763 13.5706 13.1114 13.5273 15.1032 13.4339C16.5013 13.4339 17.6328 12.1862 17.6328 10.6479C17.7148 9.42754 17.7524 8.2106 17.749 6.99023C17.7567 5.77328 17.7196 4.55519 17.6376 3.33596ZM7.3263 10.3471V3.62994L12.283 6.98681L7.3263 10.3471Z" fill="white"/>
</svg>
